<mxfile host="app.diagrams.net" agent="Mozilla/5.0 (Macintosh; Intel Mac OS X 10_15_7) AppleWebKit/537.36 (KHTML, like Gecko) Chrome/134.0.0.0 Safari/537.36" version="26.2.2">
  <diagram id="_3mnbkbLio2qw5q8C64c" name="Page-1">
    <mxGraphModel dx="1428" dy="766" grid="1" gridSize="10" guides="1" tooltips="1" connect="1" arrows="1" fold="1" page="1" pageScale="1" pageWidth="850" pageHeight="1100" math="0" shadow="0">
      <root>
        <mxCell id="0" />
        <mxCell id="1" parent="0" />
        <mxCell id="PtN3_XrCM42TER1USWGU-1" value="AWS Cloud" style="points=[[0,0],[0.25,0],[0.5,0],[0.75,0],[1,0],[1,0.25],[1,0.5],[1,0.75],[1,1],[0.75,1],[0.5,1],[0.25,1],[0,1],[0,0.75],[0,0.5],[0,0.25]];outlineConnect=0;gradientColor=none;html=1;whiteSpace=wrap;fontSize=12;fontStyle=0;container=1;pointerEvents=0;collapsible=0;recursiveResize=0;shape=mxgraph.aws4.group;grIcon=mxgraph.aws4.group_aws_cloud_alt;strokeColor=#232F3E;fillColor=none;verticalAlign=top;align=left;spacingLeft=30;fontColor=#232F3E;dashed=0;" vertex="1" parent="1">
          <mxGeometry x="120" y="210" width="710" height="460" as="geometry" />
        </mxCell>
        <mxCell id="PtN3_XrCM42TER1USWGU-2" value="EKS cluster" style="fillColor=none;strokeColor=#5A6C86;dashed=1;verticalAlign=top;fontStyle=0;fontColor=#5A6C86;whiteSpace=wrap;html=1;" vertex="1" parent="PtN3_XrCM42TER1USWGU-1">
          <mxGeometry x="170" y="80" width="520" height="330" as="geometry" />
        </mxCell>
        <mxCell id="PtN3_XrCM42TER1USWGU-11" value="ALB" style="sketch=0;points=[[0,0,0],[0.25,0,0],[0.5,0,0],[0.75,0,0],[1,0,0],[0,1,0],[0.25,1,0],[0.5,1,0],[0.75,1,0],[1,1,0],[0,0.25,0],[0,0.5,0],[0,0.75,0],[1,0.25,0],[1,0.5,0],[1,0.75,0]];outlineConnect=0;fontColor=#232F3E;fillColor=#8C4FFF;strokeColor=#ffffff;dashed=0;verticalLabelPosition=bottom;verticalAlign=top;align=center;html=1;fontSize=12;fontStyle=0;aspect=fixed;shape=mxgraph.aws4.resourceIcon;resIcon=mxgraph.aws4.elastic_load_balancing;" vertex="1" parent="PtN3_XrCM42TER1USWGU-1">
          <mxGeometry x="110" y="221" width="48" height="48" as="geometry" />
        </mxCell>
        <mxCell id="PtN3_XrCM42TER1USWGU-16" value="" style="edgeStyle=orthogonalEdgeStyle;rounded=0;orthogonalLoop=1;jettySize=auto;html=1;" edge="1" parent="PtN3_XrCM42TER1USWGU-1" source="PtN3_XrCM42TER1USWGU-12" target="PtN3_XrCM42TER1USWGU-11">
          <mxGeometry relative="1" as="geometry" />
        </mxCell>
        <mxCell id="PtN3_XrCM42TER1USWGU-12" value="Client" style="sketch=0;outlineConnect=0;fontColor=#232F3E;gradientColor=none;strokeColor=#232F3E;fillColor=#ffffff;dashed=0;verticalLabelPosition=bottom;verticalAlign=top;align=center;html=1;fontSize=12;fontStyle=0;aspect=fixed;shape=mxgraph.aws4.resourceIcon;resIcon=mxgraph.aws4.client;" vertex="1" parent="PtN3_XrCM42TER1USWGU-1">
          <mxGeometry x="20" y="215" width="60" height="60" as="geometry" />
        </mxCell>
        <mxCell id="PtN3_XrCM42TER1USWGU-13" value="" style="shape=image;verticalLabelPosition=bottom;labelBackgroundColor=default;verticalAlign=top;aspect=fixed;imageAspect=0;image=data:image/png,iVBORw0KGgoAAAANSUhEUgAABQAAAAKACAIAAABMkUL2AAAAAXNSR0IArs4c6QAAm8ZJREFUeNrt3YlbFGfa9/3nD71Zu5uGZm2gWZqGpqFpULZZksxMMktmXzKThE1AQEBERFQEEUXZXKJGo4n7njwnknGMClRV117fPj7Hezz3vBHoq6q661fXdZ3n/2v72WUAAN6V6t7MLz30f7lfalARPa7kVyTb18prZ/NLxvyhoWDJaLhmJrHvgtlvs3Mjr2hE29usqj/FeQLAO5r2X9T2afmu+uTZ9/6K/JJDuvz8UHiC44X3+n8MAQDAkvRri7dJ+gUAxeTj3SkBOMPfk+ra5JCBAAwAIP2SfgFAC1mq45QALGLNZzlkIAADAAxMv0UVh0m/AOBKrd2XZFrVQQG4vPYYRw0EYACAUel3a8mZr6cusUj6BQD3iafO6RVNzQnAwZIxjhoIwAAAo9KvUzIw6RcANKiJn3ZWAM4ODnDUQAAGABiYfu2fgUm/AKCNFO13VgAW8tXGgQMBGABgYPq1cwYm/QKAZsUVU44LwIl9FzlwIAADAIxNv/bMwKRfAEhHKDzpuAAcbz3PgQMBGABgePq1WwYm/QJAmgp0/bIwJwA3pJY5cCAAAwDMSL/2ycCkXwDwZgCuTxKAQQAGAJiVfu2QgUm/AMASaIAADACkXzPSr7UZmPQLAHoprnReEaymtgscOBCAAYD0qz39hmuOaYuU5mdg0i8A6Eg+/53XBqlzgwMHAjAAkH413l5URI+nEyzNzMCkXwDQV3XDvLMCcHZeP0cNBGAAIP2mlX7TjJfmZGDSLwDorqFl2VkBWL4IOGogAAMA6Tfd9GvzDEz6BQBDPl27NuUD3EEBuKxqhqMGAjAAkH51SL+vo2ag6KCtMjDpFwCMEyg86KAAHLVHI3oQgAEAbki/6WfghtQ50i8AOEhZ9YyDAnBLxzqHDARgACD96pZ+08zAOfkHWrsvkX4BwCmkra5TAnB+yRjHCwRgACD96px+08zANfF50i8AOEhu/gFHBOBqPttBAAYA0q8R6TedDFxYPkn6BQAHqYydsH8AzsrrowMwCMAAQPpVqrRaS+VMDRk4kHaPCtIvAJj65dK1mR3ot3kAVvsMFwRgAIB306/IDg407b9oQgYOloySfgHAYZPAdcftHICzAkz/ggAMAKRfW2bg0sg06RcAHPYt07kha4xtG4DDNcc4RiAAAwDp144ZuCG1TPoFAMeRNcb2DMAy/dvSwfQvCMAAQPq1XwYOlY2TfgHAiaSJnbbi/0YH4GhigaMDAjAAkH7TysDN7asaY2rx6E4/1h8aaulcJ/0CgEPJ41GZbrVVAC6OHOG4gAAMAKTfdPkLh+Vhv6Ypgk0pKJ3h63n7HqVySluFEtIvANiHTLfaJwD7QsOtXZc4KCAAAwDpVwdV9Sc1/3nJjrXq+HxZzUxZ1VH5Odrmk0m/AGBDMulqhwCc4e9JtK1wOEAAhv4SbRfkPrKsakY+74oqDheGJ4orpiqic3WJxcS+i63dDBHgwvSrS8PedN8m6RcA7EfWB4XC49YGYEm/seazHAsQgKGn2sSClKvJ2qvvufwHkorjrecZMcBN6Xfr9sLXQ/oFALw3AxeVT1oVgDMDffXJZY4CCMDQ6aazazNSfzI3f1Dth1qwZKyueYkBBGybfqUBb1Zev6p/Ih8IpF8AwPsy8GUp7mB+AJapl3iKeRcQgKETWUySnTeQ3prJg9oaqAAwNP1K/0b5CY1tK8ozcKa/j/QLANiF1HowMwDnBAfi7PsFARg6PcbbLK06qsuyyUx/b038NEMK2C39blOegWWLF+kXALA7ibUKVw6mGYClGE2qa4MBBwEYOpB6rf7QsL67B6VQlrYeKgCMS7+qMnB9i9k7rEi/AODIL6muTdllY1wAzg0eiCXZZwcCMHTS0rHhDw0ZUUGnqPwwwwvYLf0qzMDyoJ30CwBQMRXcshzY9WNcQwCWdYWyRFFbG3mAAIz333EGCg8aV0VWmicxyIDd0u826XDmKxjcKf2avIKD9AsA7tDQcq6wfFL6CKQZgHPzD1TWnWgh+oIADH3ll44Z3UklUjfHOAN2S7+vF61JT2/ff3dAZPp65deZv8yM9AsALtPcvhaumX1rb7CSAJyx9U00Fk2ckSrTDCMIwNBZdXzelFaivYl91IUGbJd+3yRl8Fo61i252yD9AoCLyU1gVf1JWVgkjUIadigtIYVjCkrHwzXHYs1LVrXfAwEY7ic3u2o7gmomN/EMOGDb9GvtLgzSLwAA5mjtulSfXJblmUUVh/OKR6W6mCz+yvD9uN3aVzAks/HS3rm89lhtYsFN688JwNhSVDFlTvrdJlcRYw6YkH7La2dJvwAA4M0v3OqGeZlmz/D3qFnF2RMsHq2MziX2Ob73MgEYl5PtayqXMfeEwpOyZFo2b4hI7KRcD6p+gq9gmGEHjE6/WwsuSg7J813SLwAAiLetyApzmd1NcyrLXzgcbVokAMPBpOyN8jNeChi8dxOvrKDICQ4o/znx1vOMPGBo+nVKBib9wtoVgAwCANeTXg8yfaXvik5/aLg24cgYTADGZVnir/BEl+0ByZ03AMillRXoU/ijpEM6Iw8YnX7tn4FJv7BQXfOZytgJxgGAmx/zdV+S/VDGbWz0h4biqXMEYDhqLUTqnMLzW6pkJffa/i4rore3zu8pO9BncmdRwJvp184ZmPQLC0l7UlkHWFZNg3oArtW0/6Lm71lVuyNlbzABGI6h/JmQwlqyofC4wh/Y2LbC+AMmpN//ZWA7PXUi/cLK1YD7LmTlbS1Zku1wjAYAV5JKV+lv91WuoPRQ0iGVognAXiftxRWe1vIMSckPrG1cUFoLupFa0IBJ6Xebfe71Sb+wULJ9Vbp9bJ9OobIJBgSA65Y9b7VTNrPDyzapB+SIKj8EYK/LDihq/ysPkBQ/Vl9ReJFIi3PGHzAt/f5Yf84GG3VIv7CQtLKUHWuvzyjpYsCYAHAZS9Lvj1smA/2NbRcIwLCvZsUNkORsVr7ZQOHPlGJ0HALAzPRrh0lg0i8snRXZDJaMvlW+hWEB4CYlkSNWpd8fC/0EBxSuGyUAwwJSAFPx7vYvU8qW9ceSZxVvFRjnEABmpt9XXbitvN0n/cLaNYGh8MQ7N2oHGBkArlFaddTa9Pu6bWqyfY0ADDuSulbKT+U6ZZ2+ZGGzwh9YWM4MMJBu+i0MTygsvf7j7X5ev2Vvk/QLa+8LI9Pv2eDj62VkALhDJHbSDun3vxUW7DvRRQD2NOUVm7c2SpWMKrnBzc4bUPgDiyoOcwiAdNLvdm32mvi88gzsKxgm/cKDymt3fOCb6tpkfAA4XWLfRTNrPu9eOUi6zNiw+SIBGFty8g+oOqHDNbO7ry4rUrPnvqTyCIcApN800+825Rm4OGLBdUf6hbWq4/O7nGN2XqcHAAq3eASLRu2QfmWBp/0/VAnA3iWVMDXdjJ58/4XXdendvVW7i9TNcRRA+k0//arKwOb3JyD9wlrRpj2qXcRpSg/A4Spjc5ZH30DRSIMNOk0QgLEb5dWq3l3TX9+y/OZNfDSxGAgNq27H4oRGYYAj0q/CDCy1MUi/8BS5G8vw9+x+ptUnzzJQAJxLSi7v+UFnbNnnvAFZaOOgESMAe/lZ0Yk01/dL9wipKJvh69H2z1u7L3EUQPrVK/3+ONmVWNjpW1B2KJh80ZF+Ya1E24WsvL49T7ZaZSUeAcCe3lvhzxySAspqZhR2iiEAw3pSg8rCZ0X5JYc4BCD96pt+f3wS3HZBduC8GYNlVZL5t/ikX1hLGt3nBhXVuahq4HwD4FSypdGq2lcF4Qmb9/slAONtUgzWwgAc2WEvMUD6TSf9vvmLEm0rstEg2bluwdsk/cJSsthB1igpPOUq644zYgCcuqKz7oT5t/HyARtLLqlZj7Niq6LQBGDv3oVbmH5lm2Kyg6qbIP0alX4tfpukX9hAWdWMwrOurPoowwXAoRQuddGL7CtRNYnV0rFRWrW1Qru2cYEADItJXRDWPwOkX9IvXHzFZfoULQssrpxiuAA4UV1i0cztvrLZWAKt8j9PovLrQgwFZeMEYFhMuhlZGICrG+Y5BCD9qmnBfYz0C6iVV6yoK2YoPM5YAXCi7clVc+auEvtUdIyTBdK+nzaIkfyc6tokAMNKJZVHLKwX12LFpkTAoenXKRmY9Au7CRQeVHL6SU5mrAA48lMuZHhBH1/BYLRpUfmfJGWx5Knie39UXfOSTcaNAMxtgdlCZROMP0i/LsvApF/YjfLKqDJNwXABcOKnnFTVMe6OPdPfVxGdU95AMdW1Ea4+tkt7VGmYRACGlSzsl22rTfCAU9KvnTMw6Rd2XOgUUbrQKTs4wHABcJy65jPGVastrphSVbBWtjdm5w04pQYQAdiLGtsuWJV+5Xm8fTYAAM5Kv/bMwKRfWE7KOhZHjrzu+CWzIlLXStXGHMYQgOPI/YAR9+rBolHpoajiE7hlWeHC0hzbPG0kAHtRTfy0VQG4sHyS8Qfp1zUZmPQLy0ldlqxA/3aOlf722jb4NO1fZSQBOIuqJ30KA6qqdZrJ9jW5sVf1K2wyDUYA9iLl3RF1F206w/iD9OuODEz6heXk9kvu2NK/oKSRZqLtAuMJwEF2qjWlZc2zv6e8dlZ5Om3tuiQNGhXWWXhTsz2eNhKAvShYMmpJ+s0K9CnfSQ+Qfu2cgUm/sJwsdfbpVwFVmlXKUmpGFYDX7udlFre5XUUujSYW5KGhtt+lanE1ARh62l4tZj5ZqsHgg/TrggxM+oUdrjWFbX5VzYGwTAmAU/gL030C6C882JBaVv4bG1vPyw7hdH4jARjWkPZcVq1/jiXPMv4g/b6X5s5k5mdg0i8s19p9WTrqGfRVJbVMGWEA9pebP6j5g04qNstnnXyWKt1v0rEutQbT77qU2HeRAAwL1CYWLUm/cqUx+CD9vpdspJGfIC0H7J+BSb+wg2LFLY60Ka89ziADcGUAlnqBZdVHpWev4geOlypjJ6QnsC6frhKkCcCwQLhm1pIAXFp1lMEH6Xen9Pvjbb29MzDpF3YglVrM+M6KTCufGwEA82n4Ri4oHZeloMp/RazpTDrzzO+ySTEgArDnFJi4QfEni/4pLgLS767p1+YZmPQLO6iuP2Xa11YoPCFXN2MOwK639CqqQEuXuFjzkvIfLh3mdK9pInUWbDJ0BGDPydajY4TqxmL5Bxh5kH73TL+2zcCkX9hBtMnsLTxSZFVqTTPyAGyotFpRW1OpfRuJnVQ+9drSuS7LNmWltO6fqDKZTACGBWTlvSXTv3boWQo4Iv2mmYF3/7GkXzhXQ8uyzB6Y//3lDw01t68x/gBstyKmYX7PT7CSyJGkmqd4VfUnswN9Bn2cFpUfJgDDAnXNS5YE4ETbBQYfpF9VMVVzBq5Ts8aJ9AtHkMV4VjXwe9UiuF/uCKWVvewhskkPDwCQj6NdF7CMNaq5/ZZeLfK8z9DP0mrb3BUQgL1FbrvNv3XwhYYYeZB+NUzSasvAfv2uONIvbLF2qX0tx4rNOzu29NP1GRMAaCOF+t77ZFBWGsuGEeU/R8piSckDEz48m2wzH0YA9pbC8knz7xXoJwHSr+YlytoycKMe3zGkX9iB7EbzhYbtk363u/pRHAuAHYTCP6mDlenvraw73qr4AyrVtSm7FDN8vV7rh0oA9hZfwaD59wqq6q0DpN/0M3BN/DTpF+643IJFo2/d3slqZJkQlikOCcaBwoN5xaOy0k+qoYbCk7LBrLhySjoYSZfL8tpjFdHZSN1cuFpu75gEBuBCNY2nX38uyadfUk3Bgpr4vJmVcYvKJwnAsOJOonPD/PQrdyeMPEi/263nNe/OVZuBpTAG6RduuOK6NqUAVbJzXc7JdLpHRhOLmbpOcaT/jAkAdPmQlMeCecUjqsoTSGtSuT83ORE0pJYJwLCAlNA0PwBXxuYYeZB+/5uBe83JwLHms6Rf4E31yeUs/UqbyvUou+8YVQCWUxV95ZFiUcVhC+bDikZsNWgEYA+JxE6Yf8Yn6R4B0q+5GVgeBssjYdIv8BbpR6BjMa3C8EQrO4EBOOc2RoryyB2CJaUT7LZqhgDsIbI3wOTTPVg8yrCD9GtyBi6rmSH9AjvMfqz6CoZ0/I5LqWmwCQCWiCYWcvIPWFY4MHggnT0sBGCkJWB6Ic1q7olB+jU3A/sLh7VN/5J+4REtHRuyX06va1m6jiXbVxlVAPbU2LoSLBm1tnK+LEG127AQgL1CHr1IDR4zT3f5dS0d64w8SL87LVSWryVtf1V57ex7q9pKLVxtFx3pF976Quy6JFWj9bqWc4MHEvsuMKoAbEXKB5ZUHtG9Br5acndhw4oJBGCvkC3yJp/xBaWHGHaQfnerCREa1vy3JdpW5ItNGpttdYUJDhSEJ2oTi6x8BvTdUKB0gV+gT6qqMqQAbDLpJTVodSz7p30yzN+T2GfHZqgEYK+Qtihm73dvpEsESL927yZK+oWXSa9gHdd0VMfnaxsXZK+dTLwwtgAsIRusckNDlkdfm/eCIQB7RUnkiJlnvHRcTHVRGgSkX6MKVpF+AV3Imaz7EkHZAST7FBhbACaTYss2ib5bi5+LR23bLo4A7BU61vxQIhSeZMzhwfQrpQ7VdVIpt+xKIf0C22T7gNSl0/17sCI6x9gCcO7mjnQLBNq4SD4B2CObAS6b3PgrqnU7IuDc9FsRPS4FZgOFB5X/k+LIEdIvYLn6lmXd98tl+vs0d+QGAM1CZRPWpl/pNpe0dx1cArAnSIFKU9c/B/okRTDs8Fr63f4hqjJwVf1J0i9giy/KtgtqV3DsScpPMrAATJ/32pSuENal38Fk+5rNh4gA7I31XY0LZp76RRVTjDm8mX5VZWCpjpjsMPtLgvQL7KR5/6pMXOj4bdhAaWgAltzSdG0WmFLK5N3022z79EsA9goptGPm2V9ndWFbwML0qzwDm18mh/QL7E42rQWKRvTbBTecbF9lVAFYojI6JzX5zJwAS3U6owIuAdgT8kvMewgk7RCl/xhjDi+n3/9l4J3vpKX8lcnVEUm/gMKZk/xS3VYP5uQfaGq7wKgCsERDy7lcvTd3vCsr0F+bWHDQsBCAPSErr9+0AFwamWbAQfp9vQ8nXDMjS53fekgUiZ1g7hewrUjspL7PheOshQZgkZbO9aKKw7r3e3stv2Qs6YRlzwRgj21qal8zc/1zQ8syYw7S708nlDaiTYuVsROSe2PNZ1tNLxFH+gVUqWk8rXdF6N5Y0xkGFoBVEvtWZOmZvjHYVzAcddTELwHYQ+oSi6al35zgAAMO0q+93ibpF1Ap2bn+1sKN9MlOvOr4PGMLwNIYfKGofDL9D7RgyahEX5N3chGAoYIU2jEtAJdVHWXAQfol/QJOV11/yohvSQd9egBw7zO+jZr4aZkQlr276gr7FR6UWCEp2ukjQAB2PzPbYdPzEK5Pv/JtIb1SSL+AF9ZPbdexk9lgHSeEpSxlXvGo1NmK1J+kZiQAa8nWxcq64yWRI6Gycelekf3fSCyLVqSEkPwvBeGJcM1sNHHG/MaNBGBoZ0Lxt9e9vxhtuDv9bsvNP2D/DEz6BfQiy/wa21ayDfgyDRQdlKLTjDAAW33iuf49EoBdThqxmDb9a35TU8D89OuIDEz6BXQnl3xuaEj3r84SWicAAAEYOooll0wLwFJfjgGHF9KvzTMw6RcwiGycC2i9uHYsjuXvYSE0ABCAoZvK6Jw56ddfOMxowzvp17YZmPQLGHuJdW0WlI3r+0mSbF9lYAGAAAx9FOpR61xZZcs5RhueSr+vt763dG6QfgHvkAnb4oopHT9GpAgNowoABGDow1cwZE4AbtrPA2x4Lv1uK66cIv0CXhOuOabXZ0imv7eueYkhBQACMHRYqZXhMyP9ym03ow1vpt9XrQJkBaPFvQFIv4D55OGXfh8jPdUN8wwpABCAkZaGlnPmTP9KM0NGG95Mv9uq41beuZJ+AUuUVh3VezPRcUYVAAjA0E5ubc0JwG5qjQ3S73ZdVpU9wI6RfgGvqTbgS7a0atoLTTgBgAAMu6/O2kV+ySGGGm5KvzIJE289nxXos/+8DekXsHafUXbegO7fqqHwZGv3JsMLAARgqBYoPGjG4k+2LcFd6Xf7h6jKwNHEIukX8KB46rwRGThYMia9keJtK83tLLACAAIwlJE+DRm+XqPTr9TtaOlcZ7ThsvSrKgPLfyMTQaRfwJtaOjYisZPFkSNl1UcDRfo/d84rHkm0XWCcAYAAjD00tq2YMP0bKptgqOHK9Ks8A1fGTpB+AWwvii4woPBeVqC/af9FhhcACMDYTU183oQAXNu4wFDDren3fxk4r3+nf1hYPkn6BfDm8isjCnCY/1EDAARgOIzu7RnelenvNX/lJ2Bm+t3WtH9VtuS9e/6bX/uK9As4Qrj6mO6TwIwqABCAsZtgyajRAZgH0vBC+v3ftoLW8/Ifl0SmS6tnZIWFbPwj/QLYiWwMzvDp+cSZIQUAAjB2k+nvMzoAR5vOMM5w9HqHcM0xp7xH0i/gONHEgpSK1Os7t7LuOEMKAARg7LRi86LR6VcqA8lOJ4Yadpj+1XaLmRsacso5TPoFHKo+eVbH59HysI8hBQACMN6jNrFgdACWIh+MM+ygef+qtnNYFjOTfgEYLRSe1LP5QniSp88AQADG22Rhp9EBOJY8yzjDJrLzBjScw0VO2MRO+gWcTj5q9P3+zS8ZS3VtMLAAQADG/xjRh/BNkjcYZNhHtGlR2zL+ZMc66ReAoaoN6EroLxxOdqwxtgBAAEZaE2JsQ4JzVTWc0nAmS3Oj1i6bLiYk/QLuICuWA1qv5d2qGOQPSr0PhhcACMC4nGxfM3r9czx1jnGGOzJwvi0zMOkXcJOWzvWiisM6VoT+cRlLXn957Wxx5Ih0aCMMAwAB2LvqmpcMTb+5+QcYZJCBSb8A1MXgjo1463l5SB2umdH9q1nSdVX9SQYZAAjAXlQRnTU0ADuodSrIwI7LwKRfwAsisRMGZOAvG1qWGVsAIAB7TmF4wtAA3Ni2wiCDDEz6BZCO2sYF3RdFh8ITDCwAEIA9RwpjGJd+fQXDjDDIwKRfAOmThoKZ/j499yiFhhhVACAAe4vcQxs6/Vtee5xBBhmY9AtAF42tKzo2bpAn4FJ0mlEFAAKwh9S3LBsagBP7qDMJMjDpF4BupICzjku35BNMPlIYVQAgAHuFEXU1XgsUHmSEQQYm/QLQV0vHek5Qt3lgf+FwsmONUQUAArAnFFdMGReAI3VzjDDIwKRfALrzh4Z1bVg4SGdgACAAe+QbdMi4ANzczhNlkIFJvwD0Fyob1/crOzvQL22HGVgAIAC7Wap7U/eeCq8Fi0cZYZCBSb8AjBBNnNH9izvT31vXvMTYAgAB2LXiqXPGTf9Wc88NMjDpF4BhSquO6v7dLY/Fa+Kn5Ye3djPCAEAA5v5ezTeolOhghEEGJv0CMHAeuOlMKDwRKBqRFdE6LunKzuvf3hhcSS0PAARghsBNSiLTBgXggtJDDC/IwKRfAKapT57NDPTp/oUeCk8ytgAIwHAJzTfWe9peQAWQgUm/AEwjVayy8wZ0/06PJhYZWwAEYLiBlLswIv1m+nrlxp3hBRk4nQxM+gWggXQzkqXL+n6tF5UzCQyAAAzDtHZfkuLMJvyixL4Vg6Z/WS4FMnCaGZj0C0CzZOd6oPAg25oAgABsR41tF+RutbB8Mjf/QFag73UFi5zgQH7JISnwWN0wb1BvelmlbFAAZq0UyMDpZGDSL4A0pbo280vHdKuJFRxI7LvIqAIgACOtb6ZI7ISEXoXfPfJfFkeO1CYWkvotLS4zoH3Cqy6CfebMYAOuzMCkXwB6LSgrqjisWwYO9EvrREYVAAEYWqJvee2xrLw+re2FvpR1TeGaGSn2mGbOlDtyIwJwccUURxlkYG0ZmPQLQF+a7zfe94C7N9Z8liEFQACGmgXPredzQ0M61pqSZdKV0Tmp+mjtl+Kb6pqXONAgA2vIwKRfAHYOwK+ewvfUNNLlAQABGMpIN3kdm9S/JSuvXzYSV8fnm/evKvlj5D8z6M+QNVcca5CB1WZg0i8AIxSUjev+XV9Zd4KBBUAAxh5Kjdlwu8OG4cGSyJFo02LLzhuGo4kzRvzq0sg0xxpkYLUZmPQLwCANqXNGPHwvq5phbAEQgLGjcM2saen3LXJXLVuO61uW35qYLa815E9qaFnmcIMMvPeFWTza9N/FGlJblfQLwDjRpjOyPkv3b3xZd1bbuFBVf5KvfgAEYLy18vmEVen3rdoV0sevMjYnjZfkrwoZsCZK2iRwuEEGVr6VLlB0UGraaZ6cIf0CUEhWndQ1n5HGivL/9RUM6n4DIB9lCndgAQAB2OXibSvG7fvVnlTzBiQPG7Ag6ihHHGRgc5B+AWiT7FwPaF11sgtfwTBFQAAQgD3/wLX7sszw2C39GkdbMWqADEz6BWAm6ciYX6p/K0QKRAMgAHtdJHbSO+lXKm9xxEEGJv0CcMgz+ktF5YcphAkABGAdv1o2DWq0a09SVYuDDhidgUm/AHRUVn2UAAwABGB91CYWvJN+ReJVbS0AxmVg0i8A3Ul1TL0+o6ToSU2cVdAACMBelV96yDvpNxAa5ogDhmZg0i8Ag0hq1fHDqjJ2giEFQAD2nGT7qqemfyuicxx0wLgMTPoFYJyWznWdNwNXzzCqAAjAHrv3rT/pqQCcX3JIbveb9l/k0AO6Z2DSLwBDSUEs3Vs2FpVP0hUJAAHYQwrDE54KwG/Wgi6pPBJNLLR0bHAaAOlnYNIvABOEwpNGPByXfkuMLWz86OdyQ2q5rOpoXvGo3MFm+noNuj2WB0w5wYFA4cHiiqlo05nWLp4NEYDdeDllBfq9GYDfuNS/DBSNhGuOxZJnpSA2ZwXIwKRfALbV3L4mN+j6lwgpPJjsWGd4YcN79eqGeSPOeSUyA30V0eM8HiIAu0o8dd7j6fftMOzvkZJglXUn4m0rnB4gA5N+AdhQsmOtuHIqO69f5sGygwd0XBrGDinYipyQUr3V8tvj7LyBWHKJw0EAdgl5qEPo3fFqD/QXlk/KU7fm9lVOFZCBSb8AbDk/dqmo4rB+N/r98dbzjCrsQDKnrdZpRqiaTgB2h2DJKEFXCV/BYGlkOpo4k+pkwzDIwKRfAPYieyN1W/Pp72WyC5ZrSJ3Tvd6bDhm4/iSHhgDseEXlh7M9vwdYrbzirQ3DDS3LFI2ExzMw6ReAfUTq5nSsA1TbuMCQwiqy9lAWI9iybk6PVMzhABGA3aCx9bx0x5USiLIDlnyr6iFxQdm4LAhhjTQ8mIFJvwDsRlKrjpNmkqgZUliioHTcvl1UggdSlIwlALtrI82mLPspq56RWohSG5mIq7yOtDw+kO9dPhHgkQxM+gVgT3IbI4+n9fp+l5XVDClMVp9ctvl9rxSL5TARgN1JuuNKopMmYDn5B4i4CkmtAgkGUrCe8wcuzsCkXwB2JlWsdFw+KhW22PEEM+WXjtn9djevn8NEAHY/KcJeVX8yVDZB02CFm4Qb2y5w2sBNMyrSK1smVWRtSKyZzT8A7K4hpeccmvRHpA8qzCHFVm1Y++pdMk3NwSIAe2eN9NaD1YrobLB41BHXp4VFAqoolAcAgBWkuIm+X+vy+C/Zsc7Awmiy+tIRN7plVTMcLAKwJ59RdW3GmpfkAvCHhki87yWlxThPAAAw/xYlw9er73e6NESUBXGMLQxVXjvriFtcWafNwSIAe508Fq2Jny6SDcPBAXLvm8I1s5weAACYrFS/zsCvZecNyNwyYwvjFFdOOeL+Vma/OFgEYPxPou2CdAYKlY1n+vsIwKI6Ps9ZAQCAuZu2LhWGJ/TvgBjok7IIDC8MUmDASWsEeRjEwSIA4/3fPQ0ty7KWI8/bG4aldBCLpgAAMJ+U6gnXHJNuRqXVMzqW+ZCNmowtDAnApYec0feEQtAEYOy9G6dzoy6xWFo17Svw4oZhKZ5BEwUAACwke7V0fBxfGaPMBwjAIABDmWT7anXDvDTWk+UT3snAkRhFoQEAsJIU75RlWboVwq0+ypCCAAwCMNRpbFuJ1M3J1a7jF5I95eYPcrgBALCWdHPMzuvX68u9qPwwK7xAAAYBGFrI98erjTqzgaKDbs3AbBkCAMByiX0X5am0jv1gpOsSowp7BmBZ9r+NAEwAhq21dG5EE4slkSPSc89NATivaISDCwCA9buxOtb8hbo9cJfOFwwp7BOAZY9hRfS4tOySEjyvf3Kqe1Me/ciOPOlgRAAmAMPWmvdvbRgOhSez9FuwZKHkG59EAADAKpIN8ksO6TTJ1ivpgiGFHQKwdMDefUlCa/flqvqTac4JE4AJwM589tm5kXJaGJNHWRXROfm6yvA7talStGmRcw8AAJtsvyosn9Tl+z2WPMt4wvIAHImdUPiLZONhOhmYAEwAdpi65qVA0cjr01c++qvj8zLR6qSntt2b0oY+XDMj65cyfE4KwNKKkDMQAAD7KKvSoUVwee0xRhLWBuDiiilVv6u6/hQBmADsCdIEb8cyxaGh0si0TFG2OGpmOLm1YXihOHIkN/+AA7YBF49yEgIAYCuVdSf4foejA3BmoC/Zua5yBcTlQGiYAEwAdvt2l65NhaX/84pHymtnG1qWnVXcXzb3y66GUHgiK2DTDcNSeIDzEAAA280QNJ5OZ0Wo/FtqQcPCAFykcvp3m9w2E4AJwK6f/p1X/TzJ3yuXouwoSLStOGpXz+V4SjYMzwaLR3Wv/E43YAAA3CfWfFZue7RvA25eYgxhVQDW1muzaf9FAjAB2OWKKg6nWVRddhfIIupku6M2DHdtyndSafWMLmXf0y1MHxzgPAQAwJ7iqXPZWheRhavZBgzLAnBD6pymGaNLBGACsMtJgtUryPlCw1JmPdZ0xlmlpKXvnzwhK66ckiBqTQDOIwADAGDr7VSyXEvDV3yg6CCjB6sCsOalmtpWPRCACcAO+UBvu2BEopMFxlL4Qdpty0NTh20Ybrsg3cCleX2mv8+0ABwsokgGAAB2f1weKDyoYdcYQwcCMAjANhKpmzM63UmSDIXHI/Un5empg0ZGcruU+5KiX3nGbxguqTzCqQgAgN33T3VuBEvG1H7LSwkShg4EYBCA7SI/vc7aGja7ykpjWW+c7Fh31hdetOlMadW0z5gNw8oblAMAAGufjxeWT6rphDTCoIEADAKwjT7E0ylsmG7vn8LhMtkw3LzkrA4Bze1rUjdbKofpuHc6ljzL2QgAgFNIxROFX/HRxCLDBQIwCMB2Ud+ybIcmQLLAOL9k7L8bhp00gFsbhuvmZBY9necIGb7e1q5LnI0AADhIvPW8rGiTrVJF5YfzikayA33v7v6V/V8MFAjAIADbSLhm1j69cH+8cgL9ofBkVcMpaUHmrLl0eZog4ylfgaorYJWMcSoCAOB0LZ3r26lYdjY5brcXCMAEYAKwJ0hpfrsF4DdJvwGpDhVNLCQd1VSpRTYMJxZLI9O+AkX9EirrjnMqAgAAgAAMArCxOc3O6feni4Sljd5IuOaY7JVt7XbUhuH9q9UN81ItQz4Rdnp38rSYsxEAAAAEYBCADSSzlE4JwD8Jw/4e2XNbWXeisXXFWQMuQbdSNgyXHMr0/e8zRbYM0R0BAAAABGAQgI0la3SdGIB/0lQp0C+TqzLF2ty+6qCRT3VvxpJL4ZoZf+FB+fs5FQEAAEAABgHYWJK+nB6A39owLJE+mjiTctSGYaZ/AQAAQAAGAdhwufkH3BSA32o6LxuGG1qWpTgzBxoAAAAEYAIwAdjrgiWjbg3Ab7bgKygbl24Emq9/AAAAgABMACYAO55snXV9AP7JhuG8gaKKw9Xx+aSjNgwDAACAAEwABgFYBxIIPZWBX/OFhkurjsaazqS6NjkNAAAAQAAmABOA3U8qMNU2LrisGpbKDsM9ecWjFdHjDS3n2DAMAAAAAjABmADsfsmOtZr46eKKqZzggGfDcKa/L1Q2Eak/2dR2gVMCAAAABGACMAHY/RL7VqRqlNSOygz0eTYMy4MAeRwg0+PJjnVOCQAAABCACcAEYNcvkL4knYTKa2elq5AsFfZsGA6Ehsuqj8aaz7JhGAAAAARgAjAB2P1SnRvRpsXSyHRuaMjDG4Z7gyVjsmE4npINw5wVAAAAIAATgAnAbtfcvibNhArLJ6WxkGfDcFagPxSerK4/1bT/IqcEAAAACMAcLAKw+8XbVipjJ/JLx7RdJ+6Qmz9YUnmkNrHQ0rHBKQEAAAACMAjALicbhuuTZ8M1xwKebqr0ZaBoJFx9LJY829rNhmEAAAAQgEEAdruWzo3axGJx5IhMjXo3DPt78ksPVUbnGltXOCUAAABAAAYB2P2a21erGk7JhmG5JDwbhrMD/aXVM9JsmfMBAAAABGAQgD0h3nq+su64FFLO9PV6Mgb3JfZRMQsAAAAEYBCAvSTVvRlLLpXVzPgLhz2Vgf2hIY4+AAAACMAgAHtUS8d6beNCccVUTv4BL2TgxtbzHHQAAAAQgEEA9jrpqVtVfyoUHs8K9Lk1AEcTixxoAAAAEIBBADZQa/dWpyIH/cHx1LnyWtkwPJrh63FTAK5PLnMRAgAAgAAMArCxeVJO5VDZeCR2ItF2wUF/eaprs655qbTqqGygdX6j4J5U1wYXIQAAAAjAIAAbSGZTf1KRODhQVDFV03g62e6k3jzSSUj+5q0Nw8EBJwbgvKIRrkAAAAAQgEEANpasJd6lNHFZ1UyseUnmWh30jhL7VmQ2u6B0PNM5G4bLa2e5AgEAAEAABgHY2FXESnbSyn8TLB6VueKG1DkHvTvZ29yQWpZsKfOrNt8w3NDCBmAAAAAQgEEANpLsoVV9Bgf6QmUTVfUnpTKzk6J+50ZdYrE0Mp1rvw3DMlPtrDpkAAAAIAATgAnAziMVpNJJbrLhVrbdSrfeZMe6g961bG+ujs8XlU9m59liw7BUIOPyAwAAAAEYBGBj6Vg/OVB4sKx6JpZcau1y0mRmY9tK5daG4UParmddyI5lLj8AAAAQgEEANnIitGPNmI4+vcGSsYroXLz1vDQZdspoyCLk+uTZcM0xSfIZPlMDsLO6TwEAAIAATAAmADuP9A0yOtpl5fWFwpPV9aea9q86aGRaOtdrE4slsmE4f9DoIZJl5Fx7AAAAIACDAGws2b5r5jynhEmJlBIsWzo2HDRKEt0lwBfKhmFjmipJ12WuPQAAABCAQQA2VnbwgCVbXmWBsSwzlsXG9cnl1m7HdBiW5dyyqFuWdssC70yfbhuGa+KnufYAAABAAAYB2ECJfSt2KICc4e+RS1fKUDVqvQ4tkerelHJfZTUzkuTTHAHZic21BwAAAAIwCMAGksrDdmuHmx3ol9ZE1Q3zze2O2jDcsS6NoGQ9eU6+6hl1qcLNhQcAAAACMAjARl8w43YLwG/yFQyVRqbrEoupTmdtGL5YVX8qVDaRpWzDsOwu5sIDAAAAARgEYANJyx8L296qlVc0IhuGG1KyYdhJHYYbUufKa48Hi0czfD3v75xcNOKsdwQAAAACMAGYAOw8Eiadkn7fJJecTFzL4m3ZwOyg0U51bcaal8qqZmTB84+fAoE+md9u7SL9AgAAgAAMArDBymtnnRiAf7JhODgg226llXGy3UlFpKR6lvzBTPwCAACAAAwCsElkUbHTA/BbpaRkfrWueUnmWjmPAQAAQAAmAIMA/HpF7sZOu1KdTt5XsGRUdt7GU+c4oQEAAEAAJgDD6wE42rToyvT79pUW6JNqzFKTWSozc3IDAACAAEwAhhcDsJRf8kIAflNu8IBsGJZuvcnOdU50AAAAEIAJwPBKAM79by1ibwoUHiyrmYkllyjCDAAAAAIwAZgA7GZSgtjL6fenG4Z7gyVjlXXH463nW7u5AAAAAEAAJgATgN2lOj5P9H3fZdlXWD5ZzYZhAAAAEIAJwARg1ygqnyTu7rFhOH+wOHKkNrHY0rHBVQEAAAACMAGYAOxU2Xn9RFzFa6S3NgyHa47VJ8+2dtNhGAAAAARgAjAB2Dka21aItRrDsL8nv3SsMnYirvXzAgAAACAAgwBsHslvRNn0ySz61obh+Hxz+xqXDQAAAAjABGACsB3JHCbxVecNw6Eh6ascbVpMdbFhGAAAAARgAjAB2B5auy9pO2WhUF7xSHntbENqWYaaywkAAAD2DMANLcua0sSm1n4rBGACsBWkkhMZ1RzyoKGgdDwSO5HYx4ZhAAAA2CsAy1Y+Db9O7mwJwARgJ5FqxkRTCzYMBw8UV0zVxE8n2TAMAAAAGwTgUHhSw6+rrJsjABOAnUQ6+hBHreUPDck8PFcaAAAALAzAGb6epv0X1a5/zs0fJAATgB2jpXNdutoSQS3X2MqiaAAAAFgZgIX829ZuFb+rvFb7YlICMAHYArWJRcKn5bj4AQAAYIcALKSVicIMXN0wzz0wAdhhiiunyJ+Wk+7BXGYAAACwQwDemgcuG2/ev7rLr5BOn6VVR5kEIgA7T3agn/xpOW0F9wAAAAAjAvBW+xJfr0zS1DYuNLaeb9q/uq2xbaWu+Uxp1XR2oI9VkARg56EBkk3s/oANAAAAMDkAsw2QAOxCJZEjhE/L+QoGucYAAABAAAYB2ECytT07b4D8aTl5DME1BgAAAAIwCMAGamhZJnzaQTRxhmsMAAAABGAQgA2Uft026KKlc4NrDAAAAARgEICNW/98ifXPdhAoGuECAwAAgI5C4XFH3AlnBwc4WARgk0jfHcKnHZTXHuMCAwAAgI5KItPOmAoqPMjBIgCbxBcaJnzaQX1ymQsMAAAAOqqIHnfEnXBB2TgHiwBshljzEsnTDjL9vbIWnQsMAAAAOqprPsNaSBCA/ye/ZIzwaYuHXqWHuLoAAACgr1T3pky02P9mON56noNFADacnGckT5uIxE5wdSm3/xeXf/arqx/97qtP/nTtt2b5zafXfvnx1c4PrjD+AADAQULhSZvfCefmD3KYCMBmKCyfJHnaRGPbBa6ud+37+eXf/fn6FwO3Jqe/W1p+cO36k4cPXzx//v0Plr6+//77J09e3vn22er6o9mT9wZHb//1s6+7f0UwBgAAdpRoW8nw2fpOuCY+z2EiABs//Zs6R+y0S9n3PMq+/4SE3pGJOxfWHj1+8vIHh7wkFd/4+unsibv/+vJm14eEYQAAYCPFlVO2vRP2h4ZbuzlGBGCDyUkmXWdJnjZRVH6YS0v84a/Xj5+69+DBix8c/nr58vv1zce9g990sF4aAADYQKpzw1cwZMdCsIE+maDmABGADVddf4rYaR/V3l71IRtrx6e+vfnNsx9c93r69OXi2QeyQJqPTgAAYK2m/RezAv22ugeWhdnRpjMcGgKw4Vo617Py+omd9tHcvubNy0mqWJ08fc/yPb0mvK7dePqf3lt8gAIAAEs3A1/wFQzapgloX13zEgeFAGyG0sg0mdM+fAXDHryQpKLywtL9Fy/cH33ffN289bTnwDd8jAIAAMtmwjo2CsMTlt8Ay2bMBCVgCcDmoPWR3ZRWHfXUJdT54ZVjJ+7KLtkfvPq6fuPpH/9+gw9TAABglYbUuWDJmDVzP6Hh2sYFDgEB2CSprk17bn/3srpmD+18+KL/1t17z3/w/EtKRp9avC+tjPlIBQAAVkl2rElhoOKKqfzSMSnFLKuj35Th69G6vHHwp4bzS8ak5mtl3VwTs74EYJMVVRwmcNps63+PFOXzwpUjla7WNh4Rfd98PXz04ssBNgYDAAA7kqlabfe3MuXG6BGAbUFKDRM47SZYNOqFy+Yfn3/94OELEu97X6cW7rf/ks9WAABAAAYBWD+JfSuZ/l4Cp92U1866+4LZ9/PL07PfyYpfgu4ur69vPpWqYHy8AgAAAjAIwHpt/R0mbdqQVCBw8dXS/dGVzcuPybdKXk+evvys5yafsAAAgAAMAnBaWrsvF5ZPEjVtSLqftXZfcvGmX+n6Q7JV/pLK2P3DNEkCAAAEYBCA01AcOULUtKeC8IRbrxNZ0PvdXao9a3mNT33L5ywAACAAgwCsRbjmGDnTtiL1J115kfz+L9cfGl/y6vnz7+/efS67Zy9debyy+nB5xSjywzcuPf7q+pNb3zx78uSlCRlY+iTzUQsAAAjAIACrE6mbI2TamSs7of36D18ZVPD52bOX0khpcvq7z/tuffzpNSmvZckb/MXHV//yrxuDI7cXlu4bN8t9+Oh3fNoCAAACMAjASlU3WND0KBSeINYqlB0ccOW+32+/0zkT3rv/XGZE//bvr+3ZK+hXv/9qaPT25auPda90PTh6mw9cAABAAAYBWEH6taLlryy3rmo4RbJVqLhiymXXRtdHV27c1K3q1YsX35+78PBfX9y0aqZXrY9+99Xk9Ld37z3XsSbWf/pu8ZkLAAAIwCAA70Zay5of5yrrjsuvpty0crWNCy67NmR9sl7R99TifcmTThyE/b+4PHDw9u07z/Ta5/z7v17nYxcAABCAQQB+D+mpU1w5ZUExp9iJV7/9cnagj2SrULJjzU0XxsSRb9PPe7KKWDbWfvjbr1wwINLQ6MEDHfZC3/n2mUyt88kLAAAIwCAA/0SqayO/5JDJKS7D96Use97+A+Kt54m1CvlDw266KqQolKzXTTPp3fzm2Z//ecNNw9L90ZW5+Xvpj4xUouaTFwAAEIBBAP6f5vZVv9ZzNB018dOv/wZZBU2yVais6qhrLomf//pqmhtfJSJK0WNZPOzKj4xP/3b9zrfpbgweGqMgFgAAIACDAPyK7CbNMn3tcYavpzbxk12swZIxkq1Cseazrrkkzp5/kE60u//gxV8/+9rdnxqyhjnNUXr2/KWUmzb67/xy4NbM3F2Ffvuna/r+9uFDd5T/9tek7RZfSwAAEIDhlQAsy56Lyg+bn98yfL3RpjNv/iWtXZcyfb0kW4XPDlzzufD3/3ydTq67fPWJdE7yyGfHwfE76bRKurj2yOi/8MyyipSub4VqaSWlYUwWzz7gOwnwlD/948ZX158odPrMfUYMIADDVQG4IbWck3/A/PyW6e+NJZfe+mPkfyHZKiRT5e64GGTR8jdplDteWX1oz9a+xpHQKIWdNY/Yv3tvujIAyx5yKf2tdjSuXH3i1mXzAHbyzy9uqviU+OoJIwYQgOGSACzTrdJ0VwpQWZB+A331yeV3/6SymhmSrUIV0ePuuBgmprVXfpZqz05p8KsvCXtPnrzUNmjf3X3e8cEVlwVgKfr94OELDUPx899c5QsJIAATgAECMNwfgKXuVHZwwJLkJjuNG1Ln3vtXBQoPkmwVknLZLrgSfvGbq8+evdScfr38ISIZWPb0ahu6yenv3BSAO3555fqNp2oH4cnTl7/7M+2RAQIwARj4n5aO9UTbSqLtgo5y8wc13uumzuv7l3hNY9uF5vY1aXBLAL7c0LIcKBqxKrZl5fXvlNzkkiPWKn6I0C8Nk13wOSv1h7RFuNX1R96c+33Tv768qa090qNHLzo/vOKaAHz2nOraYLKP+rOem9zoAARgAjCQ2HdR1hXKLJTsT+Qe241lg3rzSw/Fflp3yUMBuGn/xVB4wsIDkJ03IE+VdvrzpAw156hCheEJF3zgdv/qiszCachvUpXE0EW8DtI//I22JwiHDn/rjgAsb0TD2x+f+paTByAAE4Dhca+iwST31R5RUHqopXPDcwFYZsBl52157TFLZoBzggNyme3y5xVXTHFqKlRVf9IFH7vStldDdHn46MUHn7Bv83/mF+9raxxlUPEwMwOw3MVqqIlN2WeAAEwABiKxExn0XvEYf2g4ZV0Gtn4PsLz5aNNiSeSI5nX5qshvadq/uvufZEkxaofa/VGCI8gU7qPHLzSsXJV1v3xpvUly7I2vn2rIwENjtx0dgH/z6bXH6iuByb2s18qGAyAAA28pjUxzO+3RZaTlk94NwG9qbl+tjs/LcGQH+g1Jv6Eh2YG95xoMzkjlTxNc8MnbO6hl7e7sibt8ab3r13+4pqEglhSOcm4A7vroyq3bqrtnSdnnX1D2GSAAE4DhYVJERu75uZ32sp2qEXsrAL+psXWlMjqXX3Iow9+j01T7ULJjbc/fW1V/itNRoeLIERd8/q5vPlabXr797jlzdzuZOKJlK+wnf7rm0AB8ce2R2jf7VMo+/4WyzwAIwPA0uY3kXtrjSiLTBOCdng9t1ifPhquPSVE4zb2C5d8mlS00D5VNcDoqVJtYcPqH7y8/vqqhfDFle3ex/xeXb36jekZ05vhdJwbg6dnvNCye/3cv5w8AAjC8vfK56ig30vAVDBGA99bSsSGhq1jlhuG84hHl26ylOTCno7JS5j0pSwu46UJD5V6Z8eN7a3d//exrtaN6995zxwXgLwZuaZjrlhlyzhAABGB4WbjmGDfSEJm+XgKwOrJZt7r+lLThydp1w3CwZDTVtanwZ8pKdM5FhaSRlws+gq9df6J2+s6Ixbrus3FJ9cLyP//zhoMCsKxhfvpM9W5n+ZM4NwAQgOFlFdE57qLxGgFY+x76eOt5aZwdLBl7q4q6tJlq7bqk/EeV1x7nRFRIypU5/czp/uiK2tY1Kxcf8tWlxF/+dUNtOJRmVE4JwD//9VWpYqX2DV69Zouyz10fXpGV/7JSnbPUfD/79VWx7+eO3Nogf7mcOZ10PicAc1YgDZH6k9xCgwCsM5nsjTWfLas6GggNy25eaTis6p/LdDEnoqL1z/4eWY7u9LNFtmKqzTCf/v0G314KXbqibhJY/ntHBGBJL5uXVc9v35Wyzx9bUPb5j3+/MXzozsLS/a9vPn306MXrHe/y6Ec6MEv97Qurj06evjc+9e1vlS1tkELfH3+qlPKYLffQyn9s54d7323LpXpw/M6xE3eXVx7Ko4d791/Ifgcz/wDpr9Zz4Jujx+/KeSgnzJ1vn71ZIF0KockzFNlPMTXzndQUkIdxtnoy+I/Pvx47/K30qb7+9dMHD188f/6TB4VyFknfr9t3nskDwSPHvpO9AB/97iujizXoeHTkGZAcmpm5rUMja1W+uf3syZOXL158LyeJXCbyv5w9/0COi6xJ0fdRhfzed//awZHbyj9GpM+cwkHgrDDhQwMaVDfMcwsNArDtwrPsa+VE9E7957n5e6oyzOWrj7lMVGyR7Ve3RVZupzp+ecX+AfiEytNmK+08M7vs8x/+el1u42Rntaq/89qNp3L/J1M6u/zkh49UNM3+1e+/MvlgScaQttI3bj5Vu/tax7NFgtPpM/efqGkNLSf/yurDLwdu6XsJqPLBJ1/JsxKpii9RUMPmdslmEhp/b8x5rsvRkVlKGWGJZ28lt11ekujOX3h4YOS2Lms31H4kpvPSK7q7/qxI50MDakUTC9w/gwBsO3XNS5yFCiX2rbjgiN+89VTVd/nAwdtcJqpWxz1SE5bk9ff/fG3zACzngIayz//pvWXasEsFMlknmc6ts9zpSkjYabGDbQOw/K75M/dlZlVb+bH0/wDJSDKRLjNg6Qy+DK9MOpkcg2WZwPmLD9XuB9np9dX1J5/33bJV1JHoK8+DNLQof/2SycDhsdtpbhxwVgB2/VmR/ocGVN5jn2GSCQRgOyqrmuEsVKKgbNwFh1sWKKr6apdJg66P2OakjtrJ0onpb+0cgP/0jxvK547Mv4X63Z+va6g9ttNLFjROz959947fngH48/5be864GhqAJS3ISlq9Bl9Wp8usownnjExWa1jPr+QlDwJkutUO17I8flK7FGKXDvC9Q9+4PgB74azQ5UMDykk308yf1ugBCMB24Q8NcRYqmv5tc8P0ryzKUvXNLZuCuEbUksRoYZFkfQOwLAWUWKL2hm/JrLLPo5N3NITzPV+yJfKt5Yt2C8AS0RXuZTAoAMsfcHT2roZ24nu+ZOe2cbXKZEuk7P3Wa35vp5csBddlNlvb0ZFrVnZZG/GmtB0X+wdgL5wVOn5oQCFpsJLpJ/2CAGzjrflF5ZPZeQOci7sojUy743B/qbKJa18aD/697PFjFcsOZZmcPQOwrG796rrqdcXmlH3++W+uyg494+5WZUW0rOy1ZwCWKjvKO5kZEYA//uM1tTspVL1kNbsRtdP+9u+v7959bk4Su/nNs9+m3TpOw9GRc+M7w96j1IP4+a+vuiwAe+Gs0PdDA0o0tp7PCvRx8wwCsBMu17aVSN2ctFDikdVbsvL6k53r7jjK0nRH1Rf2h7/9iktDg3MXHiofZCk5Y88ALIVP1d7hyapLE8o+f/DJ1Vv6rbxVciNonwAss1Wq3rvuAVjupGVrqNEjLyfS7/+qZw0hWVxtxHz1Lq9nz16muaJb7dGRj2tZrmzom5Kf/xuVxZbtHIC9cFbo/qGBPcmCwWzSLwjAjiNdlOqTy+GaY4Gig5ygIpo445qDK40ulH8LSgsTm5SVkhJHUqdXllzKKjIpTypFSt4kb+r4qXvynS1NPn5pRdOddw2Oqqsa9YvfXLVbAB6duKP23k7KPv/e+LLPEsCMvst/8yVFgGwVgM+rebaiewCWE1U+FkyLCl/otHNS+tP8YNHr7LkHSlrRpH905BPSnOtCopSqd2TbAOyFs8KIDw3skX73XWRNJQjAjtfSuRFNLJZEpnPzBz3a+qhyyk0H9PJVFStaZTOetX+t1M+Ufq1PnqpYTiz7uKSvg9zZ6BgpTdhr/Ye/XbdVAJbC1GonRrbKPvcZXvZZmhV9d/e5mbeq8r56B7+xSQCWG1PNk9jp/wH9w9+8t2mKoYOffhFdqYT8g6UvafVkwrWsrWGPtpeq2hD2DMAeOSuM+NDALprbV3ODB4h2IAC768Lev1pdfyoUnpQlwR45OwOFB6VPspsOoqr717HDln0LSuS49U1aE03S/EMKflg1ISybYFUFSJnitlWTjEePVa9xnZw2/GyRu1sdCz4rf8mhVHU0DQrApxbua6jTo2MAVrWzXa+XPHpI5yqW5aY/2OAl6ymMvpZNfo0ofkc2DMDeOSuM+NDATpIda76CQXIdCMAu399fEZ0Lloy5uMJ7dnAg2b7qsgN351sVs2ef9dw0/y+UHaRrm7qVMJVb9s/7blky1Ko6o+o41On2Dv3wiob6RrKiz4QhnZm7+4MTXgYFYG0vHQOwVa/V9Ueaq16ZOS+6+/TsH3doMe3QoyPv6BNl9ZzsFoA5KwjAhqTfzg1faJhQBwKwV6S6N2PJpbLqGX+hqzYMS/m+uCv6Hr3lwUMVM3tqi52kT1beqvoLlT4FX7yfTn9IbWTxtvK/UGa8bRKAZU+12uGVStEmlH3+y79u/OCQFwFY99eg+rpB3b+6YsSHieaXLN3vVtlT3eZHR2H/NlsFYM4KArAhd8KdG4FCiuaAAOzZDcMd67WNC7JpNjff2VsgpHxfvPW8K4+RLAxW/i1oXDfOndKvET1dt1+yac3kDDy/eF/5nzc0etsOAVhtkfAfXlXrNWGduRy7r83dfUoAttXr6dOXykd1mxTM0/a7ZLm7NIyR5QZSVE8+lGQ/v0zTffblzYGDt+fP3Fe1suOtl9ptnzoeHflolawl72tt49GVq0++ufPsyZN0F7TLQElFOmcFYM4KArD+6bdrM694lDgHAjC2NO2/WFV/MlQ24bhOaFK+r7HtgluPi6obJjP/sL/862sp+mqH+QpL1utq2wymbwD+T+8ttbvF5JDp26tmJ1LhNv2Zlpnjd+VuVRZASpTq+vDKJ3+89q8vbw4fuiMLBNIPAwRgeckObWmeLKWbpajbz351VbYzSEiQwCB/g6rye+99SXNgVesFNGx9lDLmx0/e++CTPQ7fb/98XTqEaVtGOzJ+x8yoIzuopdqTBLb3rtH4w1+vy6FJp6PYifl7e76Ljg+uSE5+ixRUU/5brn/99N2f8F6cFQRg09umbOaXHCLLgQCM92hInauIzgaLRzN8PTY/HWUhd9P+VRcfCxV3Tg9fmPZX/fw3V81ZljaiX87ckyQBBwXg3/7p2tOn6kLgVoXefjP2V8u2ZM3ll+SPXN14tOcW684PrsgkvF6TzF4LwFKn/eTpe/JAYY+E8KdrkpfSedYwqHihhIZDKeld1VoGOcpX1Kd6eftdipe8pnN05HKWBR1dCnrtyKypxFFZyqHht8gjMFlUrOGi/ucXNw169sFZQQA2Mf1eCpWNE+RAAMbeC0VizUtlVTP+0JA9Ox7JlmZ3HwLlX4HSUtK0v0ptl0LNL1kBbtrG5iE1rYCtDcAyWaeqOtr2a3L6O3NGUvP07737z//0D3U1ZmQz9tO0VyJYEoAl6ssst9ziX7ry+MLaI1lXuW33InDp/wEX1x6pikCy41H+ibbfJXOVuoer7Zes19B2ck7NqN41cEhxdX3NR+fu3ee/+7O6pRnSN04282v4XdqegpkfgDkr9PrQwH/T7+XC8klSHAjAUF0vviZ+uqhiKic4YINNv/2ye9kLw678q/HmN8/M+ZMkg5m5mVCWYprzvlR12rAwAMv8z/qm6t5CZ8+bt55c2/46uaXT1gtaljKms6PP5AAsTy5kok/WuHZ9dMXos+Xdu2e50dd2TGWKSW2j6e3XPz/fu1662l5Zcutv2lqPV89lXigsr6Dt6Hxz+9kvNG3L7/jlFQ0fBXMKVkHbIQB7/KzQ8UMD24orpohwIAAjLYm2C5HYCVlJkmnFhuGiisNSv94jQ23DAKxt2iGd15//eYMA/DoAz568p3YAzSn7vE226Wo4xPPp1f2W+8J0enGZE4Clp7fU4DHzbHnzJTUC0vzt2oreSQ2n3X+sVCdS9QNlqUt32jHg+Cl1F5Hsizbo6Mgil9/+Wfu2fNmNcv+But0oMn9o/wDs8bNC3w8NiNLINPkNBGDouaGioWW5vHY2z5QNwwWlhxpdWu3ZKQFYsugPpr/OXXhIAN5+aWh6ZE7Z59eW1N/tXb32JP2K33L7K4sD7RmAZepV7q11KdKu+WZaioel/9uHx26r/b0yb7z7imtVD3QkgX/6Nx2quEmdp7tqzhaFH0Eajk76x+Ufn3+t9mzUsA3Y5ADs8bNC3w8NhGtmCG8gAMOwDcOdG9GmM6VV074CnTcMS7SWnRsNLec8OKp2C8BLVnRhkXtobYtj3ReAVc8vPXv5B1PKPr8mZWxV/YWPn7xU0ppFCdk/rG2ZrtEBWJYvWnu2SI9rC/f/7z5Rpmr5uqxT1euNfDmgYiuHlA1TsoZC7dFRvoxW31U5/1I/qWhyAPbyWaH7h4bHVUSPk9xAAIZJmtvXqhvmZa2y9ChK52yTTuWV0blk57pnR9JuAVjKFP1gxUs6tRCANcwhfNFvanEUiaCqj6yuf+HE9Ld2C8A6hk9tf4Bcsz/7tW7PjzTMtO/Sz0xK3Kk6n3VcyyDJU1Wt8n99cVP3o6NX8V5Vse0HNdW5LQnAHj8rdP/Q8DLZrEdsAwEY1m0Yrj8pYdhXMKhkstdfOCzlnWvi88mOdUbPVgFYcsIPFr1OaCrc4vEAbP4cwpFj6oqpyuJn3f8GDe1hjAvAMiP94W+/sjYA9w19o+8IS3NmVX/ALh3axiZVFAy/fuOpvm9E2sAq/+3SlVr3o6PX2geJbaq2Z2sI3mYGYI+fFbp/aHhWdf0pMhsIwLDLMunEvhVprVQdn5cnc5Wxucq6E/L/kJLO9cmzibYV2VTMKNk2AMudtFUB+PrXTwnAql7SqNm0wlevra6rq0QlY67733D0+F37BODlFZ23r6v9A6Rhqexs1PdvkCbMantQ73RDL+Oj/IdoLmGtS5K/qKDIsKqjI09qdHwvqprZHjtx184B2MtnhREfGt4kd5UZPjIbCMAAAdiKaKHjXlYCsNrX0rkHJp+uUotV+Z8n/Xu7PtS/q8fHatZPGh2A//rZ19YGYCmvbcSBPn3mvqo/Qwo1vffn3Lz1VPkP+cPfdN7Nrqp8lCz81vfo6JtzpAWu8l+9sHTfzgHYy2eFER8aHhRNnDGhLCsIwARgwBMB+Jz6+jc6vj745CsCsNrX5LR5q6BlplH24yn/22SpoUF/iaystkMAfvHie90n4dWeLbIr2w6bvUfed71I6W8ZIoU/4dHjF3KY9CU9ilW9iz27sKo6OrJfwKqPLw1bTE0LwB4/K4z40PCaWPNZ0i8IwAABWDfSQNLCAPy3f39NAFb72qqDNWBSHazf/1Vd607paWzQX3Lo8Ld2CMC6705Uvcj27nPjDreqct+n3jcR/ckfr/3gqNfHf7ym49HR8TNEfN6nog7W5uXHtg3AHj8rjPjQ8JT65HKGn/QLAjBAANaPrFm18D5DQ+VS9wVgDW1+nj1/+enfb5hwrv7rC3UzJ7qvXXztC5VFcQ0KwKcW7lsbgC9deWzc4ZZt+cr/kpXVh2muNbXD6497XUeqjk7/sJ7FyeT5oKEnhmkB2ONnhREfGt4Rbz2fGegjp4EADBCAdfPBJ1etvc/QULjFfQFY2vxIWSO1Q3f/wQsTyoqq7cXyi4+N6u3853/esEMANqIKt6o/YGnZwE3gF9ZUFDzbuPQ4zUlLO7z+/p+vdTw6+q6A+PRv190RgD1+VtD+V7PGtpWsQD8hDQRggACsJ6nMYe19htGtER0RgOWm+bMvb6raarv9uvH1084PrthnAGWrm3F/iXSXsUMAHtF1jauGP0BJjxbNTp6+p/wv+er6exKRTIE6K+p8vldktTAA/8EtAdjjZ4URHxpe0NR2ITuP9AsCMEAA1tvgyG1r7zNuGfwGnRKA5Z9IG08NA7hy0djuGjImyv+Y74zcniptUVU9IzAoAOu7xlXDHzB8yMCbaVUn4a3b77l4D47fcVbU+aKfAGx4APb4WWHEh4b70+/+1ezgAPEMBGCAAKw/WYFs7X3G8+ffE4Bf3zSfPa+ldJb0SjFuAFWVnjL6dH2iplGtQQH48/5b1gbgngMG3kyPqAkqt++853CPT33rrKizZx0+AnD6AdjjZ4URHxrulmxfzc0fJJuBAAwQgA0hZWwsv9WQpa0E4O1/1fHLK1IvVMMYGjfDMDymYgAfPzGwsbMMjh2WQBtR5to+yylVNZ6VFfjvOWEOOWyu73d/uU4ANjoAc1Zw26Mi/Xau+0JDBDMQgAECsFHk51t+qyEFQgnAr/+h1LV68OCF2jGUzbd/+ZchRaF7h9Rt3jNuT/Kv//AVAfgHg+vGLZ1T8ZdcvvqexNU35LDdnntWkiMApx+AOSu47VGopXPDXzhMKgMBGCAAG/iXyApky281DN3T6LgA3Paq3LEEWrXDKB1clUc+5f7dq64N0sefXjPoUP7lX18TgOUl6+SNu14kRCn/S1bXH6V/wlj+kpUFBGCjAzBnBbc9SqS6NgNFI0QyEIABArCBAVhtWV2DXsdP3SMAp/Nnv35JRbHuj3SegFVbJ3zP9iGayd5XAvBWDrn6xLjr5c63KpaEnD33niiuqnWtPICT9Q4WUlK2jQCcfgDmrOC2Z0+tXZeCJaPkMRCAAQKwsQFYsoodAvB755E8HoDF3Pw9DYO5tvlo38/1HEBZCqjqD5CiWQYdSumlSQCWl9ygGzTC8vRE1dKDI8e+S/Ox2tVrT+z/cU0ATj8Ac1Zw27NH+u2+lF96iDAGAjBAADY8AKuqb2Tc6721ZAnAkmM3Lj3WMJ4n5nWeUVdVe/nmracGHcpbKveruzUAy+ufn980YoSHVH4g7FSPWvkJ88TIqmkEYPsEYM4Kbnt2VxieIImBAAwQgM0IwMdP3rNDAJZJJ30nLd0RgMXPfnX12++eW76t+qvrT1T99k//dl334/jp32+oHQQXB+DlFUOaP6s90DtVypUZPOU/5JcfXyXqeCEAc1ZgJ0UVh4lhIAADBGCTArCsPbZJxZFf/+EaAfi9fvuna0/VTMBuv16+/F7H2tqLZ9XFs5On9d/ULT+TAPzmJkl5OKLv3/DJn66pPcfaf/n+H3X6zH3lP6d38BuijhcCMGcF3qs4coQMBgIwQAA2LwDL2mObBOB/fXGTALwTKaD6/feqi0LLMsJP/qjPYwW1LUweP36pby0uqcj66PELArBB5+q2Eyr3nO8Sh1SdMBfXHhF1vBCAOSvwrrKqowQwEIABArB5AVhWHWvotWPQa2T8DgF4F5PT32kY1TvfPv/Zr3WYJ/zFb66qTeD6rtE9tXBfw9t3dwCWBxw6dr2SFlNqD/HE9I7VzmR2WuaHle+A0OUsJQDbPABzVuAt5bWzpC8QgAECsKkB+Nd/+OoH27yMWDTrpgAszl14qGFgL199vP8XOrydazeeqv3VAwdv6zKSn/fd0nZSuTsAy0u27OpycCWZ3L2neqv57/+6205vVf2E9SrbJr125JNEuRFl17ubA/DnKgJw+sWZOSvwWmXdCaIXCMAAAdjsAKzq2b/Rr/XNxwTgPZYBf3Dlxs2nGsZ2Yel++m9nakb1FLRsXU5/a7c0YZIF1QTgnV4zc3fT/+0rF1U/W7l3f49GqaOTd1RtJ5YdyGm+i+5fXbn/QN06+bFJrwfgP/1DRW25uwq643JWEICVqKo/Se4CARggAFsQgG3SA2n79Y1hnZBcE4DbXvXSfPjwhYbhHZ/6Nv0gqnz54ptrsH+bxi2sJNivNWV+7wRgWbc8Oqn9pJUJ5FOLWpaXS0/m3X/yz3999dmzl6o+6NLcN652DGWR7c9/c9XjAfjjT6+pOtl2KnumEGcFRHV8ntAFAjCfBSAAWxOAtW0rNeh17/4LArDCvZoadm7Lnet/etO9A9O2BlvmgbXd/P3ry5ua5369E4C3X2fPP5AFAmp/qXSakV2dGn6dnIG/UNClRm1VLclvmvPVlwOq18mfv/DQ/qeH0QFYtverGrT0a8tzVnhcNLFA4gIBmAAMArBlAVh2OhGAHReAxdColqn7p89e/v4vabXn/cu/bmg7uBK/j87e7VSc0CTLTc9+p6HwtWcD8NYHxa2nv/2ziuP79/98LRedtt8lf63CCXy1qwZkV7Msc1A7eocOf6vhbJERIADLEgB1S3VuP0tz2zlnhZfVNS9l+HpIXCAAE4BBALYsAH/Rf8s+AVjDrZtnA3Cb1qrIUujolx+nVVh18/JjzYf48ZOXsyfu7n4j+5tPrx0/dU/+S11OKk8F4O3XxqXHMtUvBd53+kUymSbFydJZWC4tiJW315L952p/vvS7Ut4DtuvDKxp+hbykBbpNrmVrA3Cb+mZ4EkfTnAfmrPCmZOdGVqCfuAUCMAEYBGArA7AsYkx/kk2v17ETdwnAquZtVNVTff26dv2J9NTV/KYkvj55mlY6lVNOCp7Nnbp3cPyOLHL+9O835L1L1RlZGCnvSN8T0oMBePv13d3ni2cfyDZdyQx//ueNv372tYTe6dm7slL64aMXaf5wVfvJOz+8oq3ZuPwruXJ3WWj9u79cl8dATzWdjbKEWx61EIA1x9HtNTtSFFq2Rcwv3n8XZwUB+F2ltPyF/WTl9RGAAW8FYHH56hObBODfpbc612sBeLucjOQcDUOdZodeVeNp7cuzAdi4l4ZGONItSSaNNT8ukclqCfPygExWtEqkP33mvjxA0RafXr/Uls52dwCWhyO6nye7rEHgrPAsf2iIuAW7CRQeJAADngvAst/JDnfVa5uPjHuPbg3A29MdT59pmes4cuy7dN6aLBQkAHswAEv9XlVTZK/JbL993oVslpYZSALwm5tyzQ/AnBUelOnvJW7BbsprZwnAgOcCsObSvnreVT/XeFdNABaf99/StmxY+Ya691YPTrM+MwHYiQFYEovmN3hh1RYPTWQFuPKzwiMBeOuR1obOR0dJAOas8JpAaJi4BVuRhzLJjjUCMODFACy1edOpiJPmS8qBftZz09A36O4ALKZmtLSzkvWHf/rHDc2/tOfAN+afLXe+faZqd59bA/CDBy/MH3ypf5bOG/zZr65KDTZrc45s8pQuYna+lq0KwDIslgRgzgpPKauaIXHBViJ1c1ZdDgRgEIAtDsCi+6MrsgjZ/DsPmUU0Ov16IQCLlYtapvElR2loLvLa/Jn7Zp4t8tdKoFVVw8mtAVhm77WVQNP8unv3eTqnyjZ54PLkiWULB+RZW//wN/a/li0JwEJbR+g0AzBnhae0dK5nBwcIXbCJ0si0hZcDARgEYOsDsJD7FQmKmvuCarjtkLuH9G+pCcCvq6rKHjYNB0Im/7s+1F4UemL6W3MKiUvpaamaI7+RALz9B8gRl3pU5lyt0vbmF+l1z3rt13+4dsOK9Saye/nfaTxr80IAln0oOgZR5QGYs8JTGlLnsoMHiF6wuPJzoK+q/qS11wIBGARgWwTgbdJcRxo8zp68d/7iQ5kQkDtsfckqSrlpGBy5/eFvvzLtTXkhAG9XsnmkqcPNxbW0KpBJN2nZxW30GkWp1rb96wjAr/8AWbhx/WvDY4N0TpLWwTq+U/lp0ibH1B2eD1/88e83HHQtWxKAxWdf3tTreZaqAMxZ4Smprs3y2uP5pWO5+YO5wQNulW1Kx+NMf5/5b01+qQlvLTug/1vzhYYLwhNV9adaOjYsvxAIwCAA2ygAu5JHArD427+/lql1DfeC8sgjnd/76d+u3zdsV6osvpX39fp3EYDf/ANkC6WhZYRke7lBV2Xv0DfaCpirfUnja5lgdNy1bEkAFsNjt7V9hqQZgDkr4MqoX9e8FApP6h4O84pGauKnLUxxspq9tnFB/gzd31ooPF7XfEaGzvWnBwEYBGACMAFYt9uj4UMaO4vItHw6v/eDT766YcBs5MLS/a6PfrJCmwD87h8gsUH3otxSI03qnBl6YX7yx2u3vnlmXMiRZfPplK32ZgAWf/7njfQLU2kLwJwVcOnC72W9Nj9n+nqr4/P2eWuSwzP8PfpM+eYN1CeXvXNWEIBBACYAE4D1vD3SVptKlhm/OdGqQccvr0xOf6vXNkKZUn5vgTQC8Hv/AGlMJUvZ9QoJMqv8yZ+umXBtdnxwZXzqWyOWD8gmDnko4/Rr2ZIAvLWy4NdXTy3cT2drg+YAzFkBV2puX8tJOwNn+HpsGBEbWpYzfL3pp9+m/aueOiUIwCAAE4AJwHreHslG7itXtZRHevT4RfoNmWVR7uyJu6qaFb31+ubOs4kj38rPee/PJwDv8gf8p/fW6vqjdJawyi79dJpjad4VPDR2+/YdHeb95Bw+fvLex3r3FfdaAH4dg6XK3Xd3n5scgDkr4M554JZz6fbsiZ2w51uTglJpvjVPzf0SgEEAJgATgA25PfrFbzR215Tbze5fXUn/D5A5HGnVs7qhIow9fvLy1OL9PdMXAXjPP0Bmgw8d/lbVOlJ56HD46HfKh8sgv/vLddl1rKEtubTIWll92Df0jb71ujwegF+TmoVfDNw6fure+ubj6zee3vn2uUTK3S/t9AMwZwXcp7Bc+37g3NCQbd9Xa/dlqS+Vxr7fSQ+eDARgEIAJwO4MwBDSY+mvn30teWx5ZauuuKQyWdkoWVcS18alx4tnH0zP3pV5nn9+cdOgm1SnMOJm+g9/vS49Tienv5MnCzIzLBFCHh8IecwhRYDk8cTM8buf990ypxuZKj//zVWp+z06eUfOEAl1sr1cQpf85bLAXiYk5f+Uk+fchYdzp+7JRmUb/v3grADeVZ88qzklVtYdt/Nbq4yd0PzWYs1nCcCAVzxTXOtSvuMZrnSMjN8hAMODARgAYKeZ0kuyj1dbSoy3nrfzW4u3rWjd2Pxla/emB08GAjA86oHiCh+y2IzhSodUZiIAgwAMALCWdKPVFhSTnet2fl/Sk0nb+5LaYN48EwjA8CiZ11V4sytbrXTcT+VBc/P3CMAgAAMArKV5r6zNW+PK5LbGvc35gwRgwEOuq2maKq0RGTHN1jYfEYBBAAYAEIAJwARgwDLnLzxUfr/7RT/3u9rdu/+cAAwCMACAAEwAJgADlpHit8rvd+fP3GfEtJEWGqo6ZxCAQQAGABCACcAEYEBn0pxQ+f3uw4cv2AasjXQ3JQCDAAwAIAATgAnAgJX+8Dd1M5PSTJVB0+CGmr3WBGAQgAEABGACMAEY0J/M6D558lL5Le+J+XsMmlof/e6rH1S+CMAgAAMACMAEYAIwoL+LayqqEz989KLroysMmirHT94jAIMADAAgABOACcCA9SRrqcpmR4/fZdBUTf8+f/49ARgEYAAAAZgATAAGrPebT6+pymYS5yTUMW4KLalJFARgEIABAARgAjABGDDWV9efqIpnEuoYNCV+/5fr33//PQEYBGAAAAGYAEwABuxi+JC6VdAS6j7rucm47a7zwys3bz39QdOLAAwCMACAAEwAJgADhvjZr6+q3af69OnL3/3lOkO3iwurj37Q+iIAgwAMACAAE4AJwIBRTi3eVxvS7t59/ouPrzJ073V09u4PabwIwCAAAwAIwARgAjBglF/9/quXL1XvVr167Qldkd41OHr7h/ReBGAQgAEABGACMAEYsMu97+vXN7efSR1pRm/bvp9fnlXf9ZcADAIwAIAATAAmAANmTwJr6Fgrr8dPXv7zC2piXe7+6MraxqMf9HgRgEEABgAQgAnABGDAWIePfqctsEld6CPHvuv8wLvLof/276+/ufPsB51eBGAQgAEABGACMAEYMFb7Ly/fTiPF3X/wYnjstiwD9tSgSTVsvSZ+CcAgAAMACMAEYAIwYJ6/fva1TOemE97ufPts4ODt7l+5fzb4z/+8IYEhzeEiAIMADAAwjeQ9bUEx2bFm5/eV6tzQ9r6ygwMEYICF0N+lH+GkpvTm5ccS5GRrsZsGp+OXVz7ruXn6zP0HD1/8YNiLAAwCMADAiGnSDF+PtqAYT52z81trbF3R9r6EDAsBGPC6jUuPdYxzjx6/kIZJyysPJTfOzd87fsphTi3cXzr3QNY5f/vdcyPme999Xbry2HGj5AKyj31o7Pa/e25++vcb3Z7s70UABgB3q0+e1ZwSK+uO2/mtRermNL+1WPNZAjDgdb/4zVUJez/w4uXV14sX38tjoIPjdz787VcEYAIwALhDUfmk5pToK7DvXtnW7sv+0JDmt1YYniAAA7j86z989eDBC4IQL16r649+9+frBGACMAA4WkPLOc0RcVskdsKeb62q/mSab60+uUwABnD593+9/uTpS/IPL16y9H3x7APXzwYTgAHArZrb17KDB9JMibJ/uL5l2X7BfjnD15vmW8vOG2jav0oABnD5j3+/8fAR88C8eG295HmQlEBz8fX+0e+++v1frivkzW3SAODIud/UstQ6TjMi/jcD91bH5+3z1mripzP8Pbq8NcnAnpoHJgADO/r402vf3WU/MC9eP04Fj099y8cCAMD+Wrsu1TUvyQZXXfLhm/KKR2oaTyc7N6x6ay2d67WNC3lFI7q/tVDZRF3zGZs3PSYAA4b74JOr164/Ifzw4rX9kuXQfCwAgENJtqmIzhaUHpKOuLnBA26VHejTPRy+KyvQZ/5by/Sb8dayA/26/+X+0HCobLyq/pQEeAIwYHf7f3F57tQ9kg8vXtsv6ZnExwIAOHAx8Lmc/AMmxCdg1wcH/VK4iwAMOMB/em+xJZgXr+210F8MUAUKAJykpXNDr62wQPpKI9MEYMABfvarq6cW78vdPxGIl8dfz569/K032iMBgDuUVc0QumArkbo5AjDgDFId+spX7Arm5fXX+uZjPg0AwCkChQdJXLCVTH9vsn2NAAw4xl8/+3rj0mNSEC8vv/7+n6/5KAAAR5CwQeKC3ZTXzhKAAYf59G/XTy3cf/SYvcG8vPi6/vVTPgQAwBkzwKFh4hbsRhYmEIABR5Iy0Z/33Vo69+DefZIwLyaBAQC2U1p1lLgF21WEzusjAAOO9/Efrw2P3ZZaWZeuPL7/gDzMy+WvE/P3uOoBwP5aOjay8/pJXLAbAjDgNp0fXvnod1998qdrUjpL5sr+8TlgI9Lca/jQnbPnHzx58lJbAL577zmXOQA4Qqz5bIavh8QFAjABGAC8ruvDK1Mz3z1/rqXF1x/+Sj8kAHCG2sQiiQsEYAIwAGCLrFPQsG5/aOw2QwcATlETP03oAgGYzwIAwJbf/+X606fqlkMfOfYd4wYADlJVf5LcBQIwAABbpIqbqgB8+sx9Bg0AnKWy7gTRCwRgAAAu7/v55dt3nikPwKvrjxg0AHCc8tpZ0hcIwAAAXJaCWMoD8NVrTxgxAHCismqaA4MADADwvL/86wYBGAC8oCQyTQYDARgA4GkffPIVARgAPKKo4jAxDARgAIB3SVtgAjAAeEdheIIkBgIwAIAATAAGAPdr7b5UUHqIMAYCMACAAEwABgD3S3VvBkvGyGMgAAMAPEc6IX3//fcEYADwVgbu2gwUjRDJQAAGAHjO3XvPCcAA4DUtnRv+wmFSGQjAAABvuXTlMQEYADwo2bnuCw0RzEAABgB4yNjhbwnAAODRDNy+mps/SDYDARgA4BUf/e4rhduACcAA4D5N+1ezgwPEMxCAAQBesXj2AQEYADwrse9idh4ZGARgAIA3fPDJV0+fvSQAA4B3M3Dbhay8PkIaCMAAAE/4T++tPRdCE4ABwMXireczA2RgEIABAN5wcPzO7hmYAAwA7tbQspzp7yWqgQAMAPCEz3puPnnykgAMAJ4Va17K8JGBQQAGAHjDB59cnV+8//Ll9wRgAPCmaNNihq+HwAYCMADAOzH4q+Gx26vrj7658+zJ05cEYADwlNrGhQwfmQ0EYAAAAAAeUN0wT2YDARgAAACAJ0RiJ4htIAADAAAA8ISK6HGSGwjAAAAAADwhXH2M8AYC8I9SXZuVsRN5xSPSNTvD3+MPDZVEpmsTiy2dG3xYAAAAAC5QWjVNfgMB+HLT/lVfaOi9b08qpxeWTzbvX+XzAgAAAHC64sopIhw8HYAT+1ay8wZ2f5OZ/r7G1hU+LwAAAABHa+2+LPNbpDh4NwAHig4qeZ/ZwQPJ9jU+MgAAAACHZ+BLobJxghy8GIAbWpaVv9WC8ASfFwAAAIDzM/Bmfskhshw8F4BLq46qerfJDiaBAQAAAMeTIrjBolHiHLwVgP071L7aSbRpkQ8LAAAAwBUZeCNQeJBEB68EYJnOVftuq+PzfFIAAAAA7pDs3FA7JQYCsFMDcE3jabXvNtZ8lo8JAAAAwD0ZuGMtN3+QXAf3B+DiCtVNwJKd63xGAAAAAG7S3L6Wk3+AaAeXB2DpbKTqrQZCw3w6AAAAAO6T2HcxOzhAuoNrA3Bi34rat1pWfZSPBgAAAMClGXglK6+fgAd3BuBI7ITatxooOij/Si4MPh0AAAAA92lsPZ8V6CPjwYUBuKB0XPN7ltURsn9Yamgl21f5mAAAAABcoyF1LtPfS8yDqwJwa/elTJ0e7UjZ9NKqo3XNS9JKm88LAAAAwOliybOZPjIwXBSAG1LLug9Ehq8nWDJaXns8njrHpwYAAADg4AzcdEZu7wl7cEkALq+dNXRQZOdAKDxeVX9Kqsnx8QEAAAA4Tm1igbAHlwTgvKIR0wYoRzYMV07VNi4kO+ghDAAAADhGTXyevAfHB+BU14ZV6xn8hcNlNTOx5qXWrkt8oAAAAAA2J4s6iXxwdgCONi1aPmoZvt78krHKuuPx1vOt3XyyAAAAADZVWTdH6oODA3BpZNpWI5iV11dYPlnVcKppPxuGAQAAANsJ1xwj+EFIiyznBeDc0JBtBzQ3f7A4ciSaWGjp2OCDBgAAALCJsqoZ4h8kSzosACfb1xwxshm+LwOFB+VRU33ybGs3HYYBAAAAi5VUHiEBepysJnZYAK52YCW3DH9PfqlsGD4Rb1vhcwcAAACwhNTuKao4TAj0snjqvMMCcFH5pKNHPDvQLxuGJcY3t6/xGQQAAACYrLRqmhzoTRLErDrrtAfg7Lx+Ny1Alyl4KWqd6mTDMAAAAGCSSOykVX1VYRV/aNjC2KUxADe2rbj1eOQVj7zaMLzc2k2HYcOlujalUFl57Wy4ZnZrNn7/KmMCAADgKdLApdDha0uhXEHpoRZLJx01BmAnbgDWUJi7oGw8EjuRYMOwMWripzMDfW8Ne7BotLr+VAtT8QAAAF6S2Hexsu54XtGIVO0hJbpPhq83v/RQrOmM5WeaxgBcGfNWD+vs4EBxxZQEtiQbhvXwquzB1O5XSCg8WZdYZB4eAADAa2QuJLHvQqINe4u3nte4CTR4wJy/sLHtghRdss9dvcYALFFQ1fjmlxyKp85VROeCJWOZvl5Hh2FfaLi06qg8vZDlu3w8aVMRPa64VlmfbM9uSJ1j0AAAAIB3JpYuaQzA+YPeHDGNAVhW6qsaX+k89L+D1HUp1rxUVjMj7XkdPo/fk1c8KlmuoYV4pkKyc0OWl6t+7lAwKEMtJx4DCAAAABCATQ3AQtZwKx/fph2KG7V0rNc2LhRXTuXkH3B0GM4K9IXC45H6k7J7getwd7KtOr0qZWwSBgAAAAjA5gbgZPtqTnBAxy5PMrknAVJiZNY7hZGcRYZFIr0E+2TnOtfku/x6zPyzSRgAAAAgAJsXgNu2miFdyN4rrPoLhzXkQNnzWV57PFgy6vS2YPL2K6KzUvOJi1Pb4vm9597z+mWTcDx1nrEFAAAAAZgAbGAA3poH7liX+JEV6N+py1OalaLkn0u5qbKqGX9oyLkxOBSeSHVTMWuLrF42qjjZq03CLI0GAAAAAZgAbFQAfj3uDanl8tpZqfYsOcRXMCzLnqNNi/r+rcmONak+Le1zFC69thXZudrSQTa7LCeJ0Zuxo4kFxhkAAAAEYAKwUQHYfIl9K1JLqaBsPNM5G4Z9BUM7FQPzjkjdnPHVub+sT57l0xAAAAAEYAKwSwLwu5PPecUj9t8wnJ03IL2qvXyJ1rcsmzHOwQEqkAEAAIAATAB2WwB+U6prQ9Zdy57kXBtvGJYpa2mD7OFL9LIskjdhnMM1M3wgAgAAgABMAHZtAH5Tsn2tOj4vW5Gz8/rtloFlpromPu/ZqzSeOmfCXL0vNMwHIgAAAAjABGBPBOCfJK62lcrYifzSsUx/r31isPR58uyFKg2fDX/K4O/hAxEAAAAEYAKw5wLwG+fHppRHCtccCxQelFJJlmfgksojnr1WY8klaZJsaDloPhABAABAACYAezcAv6mlc702sVgcOSLH3soWwWXjabZKdrSG1LmC8IQRAxssGuUDEYBC8jlc17xUWj0jn0ilVdNN+y8yJgAAAjAB2LWkO1F1/amtDcNWNFUKFns6qskzCCNGtbLuOCc2gD02yKTOVUSPB0tG3ypMIP+n/O+MDwCAAEwAdv0JdFnaFEl2CpaMZfjM2zAcTSx49orNChhSpay5fY3zGcC7EvsuVtWfCoXHs/Z64imP5xguAAABmADsmZOp65L0KyqrmTF0q+q26gaPFoWOJhaNGM/8kjFOYACvJTs3ahsXiiuncoMHVH2YFJQe8vIuFQAAAZgA7Nmbp/Wtm6cK1TdPSvhDw9LB2JsDK5MwRgTgOg93Wgbw1m1BadXRzDRW9EjRxGQHK0oAAARgArBXSXEUhcvndpGdN1BQOl5eOyuTzHLWenMkWzo3jGgILM8pOEsBbJMPhPQ/VXLzDyT2XWAwAQAWBpDKuhNF5Ydln6YvNOwrGHxNc0FfuQ9/8+cImZaTxrHy1SnVkZLu3U5IAE6LFFCRdr7vFlB5T+IN9OWXHgrXzEYTZ5JsT32lSms34EDRyA6X8ZfS48qzDxQAvL14p31Nt85qeX0NqWWGFABgMikV5A8NWdKtRir1uvK7jwCsjx9baFQdfX2CyvywPKEpq56pTSzQUeO9dsqxe23JG297VcZG5s/lMdV/o2+vPK+SJs+MKoDX6prP6HgfIOuoPVuwEABgPrndzdN0t6x309aJlo51AjD2mHOQ85Vx2POS1qVittQqkx3aUr6bIQXwloaWc/q3WIvNMbAAAKPJNsksK/qz7rRbuLHNPVuBCMCwhszfapmB8fdSkRWAQvKALNOAhnay2IeHbgAAI1cwLdkk+v5vK1CgL+GWDEwAhjW07denwBUAVfJLDhlxH1AYnkh18zAOAGDEMskL9pn7fZNUyWrpdMNaaAIwLFmXuKztwqtvoQgNABUqo3MG3QfkFY9Ke2FGGE4nyxrLa04WhqeDRRO5eWOZOUNZvuHc4Ghe4URh6ZHK6KlEGyXQAVP5Cw/aMP1ukzLUBGBAi+LIES29o4IDLDsEoEq89byBe6JCQ9Q4hFOnmFovlkWO5+aN/l/2gT3lBkZKK2eb9q0yboDRahsXbJt+tzW2rhCAAXWkTVG2pnUd0kSK0QOg8gPncraRC8mkqbv0w2Oc4SDN7evF5Uczcg4oib5vKS6fIQYDhpJlxjYPwFIUmgAMqBNNLGq73hJtK4weALUKyycNvRWQ4nyxpjOMM+xPNq6Hq+cycgc1RN/XMnIGy6qOy7NsxhMwYEvCis3T73ZTQKeXpCUAw2yh8LiGiy1QeJChA6BBdXzehBuCqoZTDDXsrGn/qj80nk70fVOwaDLprr6ggB1URI/bPwC/akq6SAAGlGrp3MjQ1JUkEjvJ6AHQdt9vzg0B2zRgW/HUSpZ/WK/0uy07MCI/lrEF9JwlKptwRAAurz1GAAaUqqo/pe1KS3asMXoAtNHWd01LecyKwywNhR3Tr0/n9LtNfmyijTpwgG7yikYcEYCLK53dl5QADFMFNF3YBaXjDB0AzUo0VZ7XJlgyluqiPRJstAJC97nfnxSIDo62dHDCA/rIyT/giABcUHqIAAwo/Bq+qHWnwQKjB0CzaNOimXcG/tBQczuLVmA9qXql477fnUjH4NbuTUYbSJ+0/HREAM4vIQADypTXzmqpNRfoa+1iSSEA7Vo61zN8pt4cyE1Mou0CIw9rSblmo9PvNukSzGgDBGACMPA2bdvwnL7NAIA3N1ZlBfpiybOMPKwij2CkZZE5AVjEmpcZc4AATAAG/qehZVnbNVaf5DsVQPorUI6Zf4uQ4eupaTzN4MMSBSVTpqVfkRM4KI0eGHaAAEwABn5UrKkIjXwQtHYzegDSJY/SrLpRkL6OjD/Mn/5V19PIf7C4YqY2fqY+eb4+eU7+H/J/yv+o6ocUlk0z8gABmAAMbJG+INmBPvpqArDwUyjT32tZx4jIEQ4BzFRScUxhas3MGaqoPZF6X60N+R8royczcoaUZ+DaxjMMPmBtAM4K9JdGpusSi41tK1IHflu89Xxt40JR+eFMXy8BmAAMM9QmNJZgTexbYfQA6LMitPSQpU0jxlNdVMqFSRS2PpL/rKHl3O4/StoIK58KzvYNJzvWGX/AqgAs0Xf3zQjSpKAgPEEA5myD4UJlWq60QOFBhg6AXipjc9auGZPPNLIBTFnwf15JWJUSWRJulfzAhpaVTMXzwLL3mEMAWBKAq+tPKfxFpVVHCcCAgV41INGy3CISO8noAdBLo+yKtHrflBTDT+y7yLGAocprTipJqhW1Kr5kq2OnlS+Erqqn9htgdgAO18yonJ0aJwADRqmqP6Xt6kp2rDF6APS8t8izvr6IFERoSJ3jWMDIVVfTe2/9zR1+777fXeQXKy0rnZk7JHsOORCAaQE4R6rGqryim/evZmjdD0wABvYQ0NR+U55LMXQA9CX1P+xQP1NqkEQTixwOGMSXP7ZnRpUiz2p/bHP7epZvWGEGziucoIkDYFoALq/V0m6gsHySAAzor2n/RW2XVm1igdEDoK+a+LxNekhk+GSXxwmOCAy5h1ZQs6q6XsuXrLRHUr4QWipIcywAcwJwY+uKpu/E0wRgwICdSLWzWqZHAn1qF3IAwJ6S7Wu2aqVYWj3DQYHulDQuijVrXIdfGJ5WGIDlz2hsY8c7YEYA1tZlIJ46RwAGDFiIVTCopWdmJTUkARj0oTRsqwwsK9Bau2mPBD0pSafxVo1dBls6NrIDIwozcKDgkLTg5ogAhgbgDF+Ptl8nRRkJwIDOGlLL2q6r+uQyowfACGn2fjBCXvGoVMvn0MARAVjEmpaVL4QuqzrOEQHsGYA1b1QkAAM7Kqk8oq2QHUMHwCB1zWfsFoCFr4CquXBMAH71/X5MeQZuaDnPQQEIwARguJ+sesrK69PUx2yW0QNgkFTXhtwr2DADS4umxlZyApwRgGXDYW7emMIA7AuOatugCBCACcAEYDhJbWJR20WV2LfC6AEwTrBo1IYBeKv+n7831rzEAYL9A/DWLqeW8xk5SieBSyqOcVwAAjABGC4XKpvQcEUFig4ydAAMpa06vVntkXqq4/McI9g/AItw9ZzyhdCyc5hDAxCACcBwLSnoom2RYaSetoEAjNWgtfGDacI1TJfBAQFY9jr58w8pDMBSO7qlc4OjAxCACcBwp6r6U9ou4GQHpVABGEvu2qXZuM0zcFHFFP1jYPMALBrbLmTkDCrMwIVl0xwdgABMAIY75RWNaLicQmXjDB0AExSEJ2wegLfvMFLMmMHeAVhURk8pXwhdGz/DAQIIwARguI3my6k2scDoATCB7LawfwDeKosQGk620x4Jtg7Ard2X8wonFAbgLL+c0mscI4AATACGq8juNU3lT/tau1jvB8AMiX0XHBGAt1ujJ9qojQ/7BuDt2+jM3CGFGbig+DDHCCAAE4DhKrn5gxqupeLKKYYOgGlyNN1nWCIr0FefpIIu7BuARXX9gvKF0JHYaQ4TQAAmAMMlGlLL2q4lbu8AmEkeujklAG/f39Q2skkE9g3AIr/ksMIALNPFiX2s7QcIwARguEJJ5RENF1Ju8ABDB8BMkicdFIC3VcZOcOBg2wAsm3tli6/CDCzbhjlSAAGYAAzHk6YdWXlamouU19L0EoCpkh1rjgvAr4oFLnLsYM8ALKKNZ5QvhK6o5YEOQAAmAMPpMyqJRW0XUqLtAqMHwGT+0LDjArC/cJgDB9sGYFEUPqowAEsD4Xgr3/4AAZgADCfT1lozUHSQoQNgvrKqo06cBKaLDOwcgFs6N3ICBxVmYH/BmKwd45ABBGACMByppWNDrkANV5E05GT0AJivrnnJiQG4Oj7PsYNtA7CINZ9VvhC6LDLLIQMIwARgOJLkWG0XbbJjndEDYL5U16a2x3bWKiyf5NjBzgFYlFbOKl4IfaCh5RxHDSAAE4B11ty+JseY68pQeUUjGi6hUNk4QwfAKsGSUccF4Oy8AQ4cbB6AU12XcoOjCjOw/JfyNIoDBxCACcDpf/huRJvOlFYd9YWGto+WFCjOLz0UrjkWTZxhD5W+NF9CtQk6WwKwTEX0uBNXQcfbVjh2sHMAFvHUeeULoYvLZzhwAAGYAKyFlFJoaFkur53NKx7dc2GbPEQvKBuX/zjWdEb6YXDVpUMeK2i4fjL9fa1dVL8AYJmte3QHBuDKOvrHQEEAzhn4vxzpTdjzfzlvy8kf9BUMvytQNFJcORVvPa/PvUH1nPIMXNd0lmMHAjABmACsVGLfSiR2UkoQZwb6tC8qCw6EyiZkNqA+ucwVqFZu/qCGMS+OHGHoAFgrK40vDqvkl45x4LBHAM7p13yCyf10Tfy0LtMS/oJDCgNwtv9gsnODwwcCMAGYALwjmbOVT+eiiqns4AHd7y0KSg9Rl185mXXXNs7yDxk9ANYq1NS/zVqZ/l6+pLBHAM7tSfMc02WzWGPbxYycIYUZuLBsmsMHAjABmAD8E1IjQbpWlFbP+P+7rdc4dYlFrkOFZCJXwwjn5h9g6ABYrkpTBXvL1SdZL4pdAvCAfRpuVdadUr4QuibO3RcIwARgArBMMKbOVURnpVanmf0qJGlzHSpb4LSZFdCyzqq89hijByDd1UDta4m2C+msnEzsu+jEACyVFzj62DEA5/TZ5xxr7b4cLJpQGICzfMOUKQUBmADs0QAsdyRV9adC4QlLdmdJsWguQoWiiQVtg9zUdoHRA6At9FY3zBeVT0pt/9cfKbIySPOElSxIcVwAlmJFnAnYeQa4P/1zLKpfm4am/auZPqULofOLD3MQQQAmAHslALd0rMunrZQfzLH0XqSo/DB7q5Qr0LR9LlB0kKEDoOILonNDdqaURqZ9BbuV3Cuq0PIBrm0fh7UyfF+2dK5zYmCHAHxgq9pzGieYXGj6tmmoblhUvhA6UjfPcQQBmADs2gCc6t6MJZfKZFtv4UFbLCqrZlGZqmcWG9rWpUfqTzJ6APZaOXmpIbUcrpnNKxoxtEKy5pUs1orSRx27BWDRq+3Uyg0NJQxYpVVQMqUwAGfmDib2rXIoQQAmALsnAMtukMbW85V1czJ8mb5e+zxNl0XXXHuqRDQVj5ELNcnEBYAdt8CsROrmCkrHpQ6txuI9Deqmj2QLsRMDMJ3ksFsAft0MSfYDSxL+KVkrUVZ99F3ltbPRpkWZnDBk80LHepZ/WGEGzisc51CCAEwAdnwAlh0gclMSCk9m26/pYoa/Rz7xufDUUjUt878uU+EJhg7Am5rb12oaX3W2y9Oheq0sKVL7B9hkFZLKWvqDnDnYIwDvIN66YsnfVptYUr4QurzmBEcTBGACsPMCsOxQiirYtWUtCeQNLee46tTP0lxk2R4A7VtgZFtv81JZlSGd7ZpVFpIN18w4cRJYnixzIsFBAVgUlc8oDMAZOYMW/p0AAZgArG7XVn1ya9eWFDqSdcX2f4IuQY5LTgPpY6RhwDP9fQatrQJgf6+29Z4rrz1udGc7tRWhpa2uEwNwVQM7d+CwACxPvnLyRhRmYF/+oVbuGUAAJgDbNgBLvQTZtSUNhDTv2rKgjUThwWQH7eY0kmcHbFoDoPBbdquzXdlEpllbYArLJ9XdlHdv2qcmhXFvEwRgywPwq+dNy8oXQpdGjnNMQQAmANsoAP/YjLHisC67tsxv9pvq4rGiRg0ty9qGXf4howd4gTxerG1cKJZtvUELviCy8/rV/sHyje64LzLZwiN1JTnZ4KwALCTWKl4IfaA+yT41EIAJwJYG4FTXRrTpTGnVtM+AXVvmFc+snKLZbzq0tc2UDs8MHeBi8lRxq7NdzUzABjWl4m3qbvGlN4ETv87iKbIBnBeApclwbv6Ywgycmzea6mTGAgRgArC5AXhr11bLshTHzys2dteWCb2OpNRnJEZdwXR38WVpWsco24YZPcB1HwiX41ud7WRb75itviAq69R91Mu7cOL3mow8JyEcF4C3rrjUipS5UpiBi8tnOLIgABOAzQjAW9t6YydDZeOZ9mtcpLLS1QGZsZTiwy0dG1xd6ZOR1HYgEvsuMHqAa7b1Vtefkj2oWYF+u+5zGVN98+HAL7v8kjHORjgxAAtpdKR8M3BdYomDCwIwAdiQACy7tmriW80Yc4IDjg69WXl9ofBEVf1JObpcUfqSRr4ajog0DWboAGdv6+3cqE0syvNEeapo/28Bqciotn6s5HnHfdlJ7S5ZTcrJCScGYFlQFigYVxiAs/1SuHSd4wsCMAFYnwC8tWuream02pBmjOaucO6V1hoV0ePx1Hnqghh3B6xtlWOk/iSjBzhvW2/3prQICtccs8O2XrXkL1f1ZqV5khO/++QbnBMVTgzArxYbXszMGVKYgUOlNJIAAZgAnHYArojOBh2+rVf4Q8Nl1Ufrmpd4Cm4CybHaLs4WHtwCziEVpCpjJ2QVsRObA70muV3l3cCqE9+mVB3jjIVDA/DWfUXdvPKF0NUNCxxiEIAJwGkFYOfe1sgKbankLD02WA9jskCRllkgWTXN0AE217x/VaZAi2Rbb16/o5+KvtnsXe0gaOtwbvFT4MJhzl44NwCLYNGkwgCc5Rtu3r/GUQYBmADslQCc6e+THCV1uailZBXNl4rUzWL0ABtq6ZTOdoulkelch2+B2anyf0unuoekMhROfKcssYGjA7Bk2szcYYUZOL94kqMMAjAB2M0BWA5qsGhUOjA10OrQBqSPkZaCZIG+VDcd/AC72Opsl3rV2a5oxH2hN82nb/I4wIlvU9ZDcWLDuQFYVDcsKl8IXVl3igMNAjAB2G0B2BcaKq2Sbb1npEAX14N9aFscKDVjGTrAcol9K9IFvaB0XMojuz73av78kRljmTd23tusnOIMh6MDsJAaVwoDcEbuYGIfPT5AACYAOz8Ay1EvKj9cE59Ptq9yDdhQQ8uytiMrc02MHmDNwsL2tZrG08UVU9l5A94JvT/tAz+odtCcODGeGzzA2Q6nB2Cp6iK9jhRm4EBoXBazcLhBACYAOy8Ay0REfumhythcYxvbeu1OJlK0lCvL57YMMFWqc0Oq4ssiGr8bt/VqoLYbfLhm1olvkwkxOD0Ab+1BSCwpXwhdXnOCww0CMAHYMQFYnq/LbtL6lmWe3jln0+CmbOU1oQ0JAG3beuOpc+W1x6UXutM72+muqkHddsF6ratdLH6b9eyKhOMD8NbT9ooZpQuhcwbjqRWOOAjABGD7BmBZh1YSOSL1RWR2glPccWoTCxrnXpjbBwzc1ntRYk8oLNt6+wi6Oyksn1T7NMGJ26TlNOCKgAsCcKprIydvRGEG9gXHqLIJAjAB2F4BODvQL3ce0liymW29DhcqG9c21c/QAXpvk1uTkr9S9EjbN6UHZeX1tXarG2TZm+O8txno4+qACwLw1iqM5DnlC6FLK2c56CAAE4AtDsAZ/h4Zl8roXLz1PKeyS264Oze0LaqM1J9k9AA9pkQ2Y81LZTUz/sJhAq0Gar+PpDKFI98m/QLhigAsyiKzyjNwrJkzHwRgArDpAViaRgQKD4ZrZuqTZ1tZi+I6kmO1XZAtHeuMHqB1W+9liW2VdcfzS8bY1psmGUZ1a8vbLjjxbVZEj3PhwB0BWBY2+/LHFAbg3MAI2+tAACYAmxSAZVuvVAaW3aFJPndcLVB0UMPpURCeYOgADV9IUrRJNo9kBfoJrnqRhwiqb0Qc2DhKSqBxBcEdAVjIHyllrhRm4KLwUQ49CMAEYKMCsNyTFYYnqupPqm0sAefejmu7PGoTi4weoHCXQTSxIM8T5akiYdWQvTm+3tYudU0HiioOO/Bt9shqeS4oArA7ArAorzmpfCG0tFDi6IMATADWLQDLrUOwZEzWVsl6PLWlROB00rBKWzkWCjMCuy/wkz0j0idM9o/ILhIyqtFkE7WqA1QTn3fi26xrJgMQgN+MhQP/l9P/f9lvq6w7EU2ceZdcJkk77V2SkuyB0LjCAJztP5hk4xUIwATgNAOwPzRcVnVUvk15ouxl2qakSiqPMHTAexb1ta1IjcD80jGpF0goNVO4Wl1P8ub2NSe+zdIqFoISgP+bCXM0dkeTLRgtHXbZ2tbUdjEjV+lC6IJS7j1AACYAqw/AMvTFFVPSY4OnaGjbakWwrO3aaEgtM3rAj1Fq/6p0g9va1pvHtl7LFJSqbpPrCw057m36Q0NccQTgV+k3rV7WtrrBjcROK18IXd2wwDkAAjABeO8AnOnvk3pFUum3qe0CJx/eJL1GNVVHO8DQwesrnGVbb9NiaWQ614EhypWC6utgyWyqE9+pdIrmAvR8ANahhFssaaPl9MGiwwoDcKZvqHk/lwAIwATgnQNwee1sQ+qcbLHgnMN79yjKVl4tSw1rjjF68CD5LG1oWZbP1UDRCIHTbmRxk9oDGm0648R3WhM/zcXo+QCsw2KTiuisndbRrGX5hhVm4GDRJKcBCMAE4B0DMKcadiENrrRdGIl9VAiHhyRkW29srqBsPNPfS850UyyUaXwndmDWEPXhtgCco0MAjsRO2Op91cQXlS+Eroye4kwAAZgATACGaqGycQ1XRV7RCEMH10u2b23rlaThxG6xHpQbPNCqqS59XvGo495sdpBNKMwAH0j/RJKKfXZ7a4WlR5QuhM4ZSrCtD94IwEJtn79t0tyHAAz89P5e69RHVT2PXeHSTQFdm7GmM7Iv1BcaJlI6SGagT/OtvCxod+JbTuxb4YL1egBObxV0afWMDd+a1KaWXkcKM7A/NM4WP3gkACf2aXncU5tYJAADPyFF0bQtw2ihfjhctq03dU66oMtMoBNXw0KqPMbSaI0rm7qd+K7ttngVVgTg7Qzco/JL/Espfl7VYN8H2XVNZ5UvhA5XcyHAEwFY22d+ceQIARj4iUDRQQ2XRKhsgqGDC0hJfHkGJOezxCcypEPJSmBpZS+L1dN8ApIZcN45oKHnE9wYgHdU33KupXPjXSlNOwVMVlwxozwDN7SwGgLuD8C+guHWbtXrKbK0frsRgOFOUsVK2yUhqykYPTh12X/HurRAl9Zfmr+BYIP53l75Yq6IzjW2ntfrxJA2gU4cBxZ/EoB3EW91cCxMdW7m5o0qDMC+4Giqi2sBLg/AryaBT5oz/UsAhmuFa7Rse5MnSa1OeHgM/GRbb/NSWfVRfyHbep1KFm0GCg+WVc9I21IjUp/cVThxWBpSy1zgBGBXBmBRnzyfkaN0ErikktaMcH8All1aynt3S72edL5fCMBwp9x8LQUkSyqPMHRwwrbey/FX23rzS8YyfDQucqqc/AMyXS+T9i2dxtYdkOIiThwfKd/FxU4AdmsAFmVVx5UvhI418zwILg/A2xl4z3lgqRctm4PS/H4hAMOF6pPLTDjAhdt691+Uyi6h8GRWoJ/06FBZeX2h8ERV/Uk5mmaePDkOXBWfV0xHOgKwmwOwrDjz548pDMDZgRHZ4cy5AXcH4G3+0JDUxJJHt2+uypT1bo2tKxXRWamOkf6vIADDhWRSRUubzXw6T8J2pMZDNLEgaxNy8wdJj45d4dwbLB6Vr20px622yIe1n4pWj1tPqos7fgKwawOwaGy9kJEzqDADF4WnOTfghQD81hfBNn1/LAEY7lsduqmtKBzL7WCfcziWPBuuORYoGpHdoQRIh5Jn2NKJVHZot9qggE1N/LQTxzDatMgHAgHYxQFYVNSeVL4QOtp4htMDngrABiEAw21qEwtae3BfZPRg6VTASmXdifzSQxl+uvU6VW7wQFHFlKTNZKe92oknO9acOJ6lEaa8CMAuD8AiEJpQuhDaNyzV/jlDQAAmAHO24SdCZeMargSZamPoYL7m9tXqhvnC8slstvU6d1tvoE8+dqRuR6Ltgp1PNn/IeXXCc0NDfEoQgF0fgJv2rWbmKl0IXVAyxRkCAjABmLMNb26YXNe2T0DKqTN6MEeqU7b1npGpLV8B23qdu623J694VPZNNLQ4pnKerMd24lAn29f40CAAuzsAt231dDmtfCG0/MecJCAAE4CBH2lrdyn3si2sKYKx23ovSVKSbb1S2Jb06Fw+2dZbNR1tOiPlKB13EtY1LzlxzKvj83yAEIBdH4BFfvGUwgCcmTvUtH+V8wQ25JSOAwWlBGC4SKDwoIbLIFQ2wdDBCIm2FSnlX1A2numnW69TZW9t6z0sK9WdPhUpoV33QpomkA0CfJIQgL0QgJvb17N8wwozcLBw0qqS8oDu9+HmK66YIgDDLWFj30Vtl0FtYpHRg16S7atSA0kiU7YDO69imzywkGpkkbo5m2/rVStYMuq8BxB5/XyqEIC9EIBFbeMZ5QuhpXw0pwrsRlshHvOFq48RgOES4ZpZbQVs3my0DWibW4s1nSmtOupzYJ0hvFEM76B8jNS3LMuSdVeeqNKL2InHJd62wocMAdgLAfhVfphWGIAzcoYSrXSvgN1uxZ1RbEImKgjAcInc/ANaVkFEjjB00Kah5VxF9LgUQ3LiylL8uK23YFAKkkUTi6muDdefsfHUeSceo8rYCT5tCMAeCcAtHRvZgRGFGThQcMitT+vg1Pui1DlHfK3IhUYAhhvUJ5e1XQMOKuIKO2hquxCpPyn7xjP9faRHp27rzesPhSdlW2+z9yoMy5oXxx2v/NIxPnkIwB4JwCLWtKx8IXS4ao4TBvYhW9Ptv/8rv8Tx3ykEYPyouHJKS5PJ/EGGDntv6+1Yr21ckJIJOWzrdW7jIn+PtD2orJtrbD3v6Q1a4QknbslmowoB2DsBWJRUHFOegRtaznPOwD6k9qfNv1Pqk2cJwHDFDszuTW3TGtLGk9HDTidVrPlsWfXRANt6HdytV7b1jsiWpFhyiQS1rar+pBMPpQvuV0AAVvEF1LWZmzemMAD7gqNObMwG904CX5LpJZYUEYBhuGhiQdtl0LSfAhJ4985jo6xqxokrRfHflR0HZEmIfCw4fZOPETRXy7e4YmfNMY4dAdg7AXhrL2XL+YwcpZPAxZVcILDXtkR71kbJyut3x50/ARhbCkq1VF2XqSGGDm+vdu7ckKpIZEjHycrrk229Mr3JU609aasXaHWBbj6uCcDeCsAiXD2nfCF0XTMFTWAj1fWn7LcorKfeLXV/CMCQkonr2p4zVdWfYvTw03U7m1LSmTDpnBXOvdLYVlr7SHFjKbzBCayQtooJlm8D5sARgL0WgGUpqT//kMIALLWjWzpZ8wJ77bixzzywLOura15yzdgSgCG77U9qew6U5KsCPyU9jUiV9ucPDZdWz8g3WYptvebuGbEWuxwJwF4LwKKx7UJGzqDCDFxYNs3JA5uthT6bHTxgg9uGocS+C24aWAIwLgcKD2q4GELhcYYOb6HIs3239Qa3tvVKLe5k5zonavqrZpx4DnDgCMAeDMCiMnpK+ULo2vgZzh/Yijy7lNkFq+qqyH1ddXzefaNKAPY6acqq7ZKIJhYZPbypuX2VnGmvbb0B2dY7Lks8XPbg1g78mp4bsgcYBGArFkJfziucUBiAs/zDSe+1N4cDYnD3Zl3zGXmQHSg6KI2CjVsaLXujpM5FXtGIVDOVWlxuHU8CsNeFa2a13VjTEwVvrzRrXSFz2qFGhWzDlv5k8dQ5zknjlFXPOOvEqIjOcdQIwLYKwLLhtrHtYrz1gjSKl826xj7r338xM3dIYQYuKD7MKQS4GwHY82tWNZUzLY4cYejwliQzwNbxhYZKq45Gm86wz9Mc0hjZQadHdqCf6j7eDcC5ff+X0/t/uW/zhYZlXcC7pDCefJgk2vRfNiKfTrWJpaLwUem7m5H79r7cbN9wfvFUpO5UU5shheir6xeUL4Suis1zFgEEYLiTVDPXdjvV0EK3ALxHdh57gE1MNcGBoorDNfHTLNizZDVapq/XKaeKm0p3Qk0A7k9nGaQUe9Pr72loOVdQMpWRo3QONjdvTCKo7tPC8jco/ANkujixb5UTCSAAw4WKK7Q088jNH2To8F5F5ZPkUqOb2RSUjVfG5oyYn4Eq+SWHHHHC6Bhj4KgALI8je9I7efpkXU+6a4/bLoZKp5RPvb4pJ29Epm11jMHyrFC2+Cr87bJtmBMJIADDhTMY2mrKyfZCRg/vX2PWME9GNYKUowjXHJMlG0bvlINylXVzto6+vl5ZINC0n1kszwbg/vTPonSqv0rpqbKq48pbEO0kEBpv1m+RS7TxjPJfXVF7knMJIADDVTS3spRiEowednq+TljVrXFR/mBpZDratJjqYvemHTW2nrfnaVMip02C08bzAThHhwAsz900pt+uS6HSI2lG3zcrM+tYjbYoPK3w90p6lxpdnE4AARjuUVA6rmUmqpheGtiNr2CI7JpOsaLC8kmZdWlmW68TZOX12+G0kT8jFJ6srj/FfC9+ugQ63VNL2/r5ZOeG8rZDagpTndZlcKQgXE7goMJf6i8YY90NQACGW2bqOte19RCrqmdFEHZTWjVNjlVXbMbfI7tJZT1tvPU854+zSOy0cIVzsGRMmhs1ctrg/QH4QJp7gGU1gYaq8vLwLjd/TPf0+2o+9kA0cVaX8Yk1n1X+e2UhN2cUQACGG0RiJ7W1GE3SSwO7qksskmkVXEpf+gsPhmuky/xZWmo7l/mb3gOFB6UFsTRhSnHaYM8ALJPAOT2a06+GR3JyWvpD40ak3/8WZx5sTOnTvri08pjy4C1VrDmpAAIwHE96/Wn4RgyFxxk67HED1LWhbXGBN7b1HpAe2rKqsKWDB0lu0LzfjN7X0q29uHKqtlFOm3XGHGoC8H+bIeW8agX8U6HyyZLIkXeVVR+V5mraOooXl88Yl35/bBccGNGl8Vuq61JucFRpW6bgKC3WAQIwnC2x74LW7UCLjB72lKfp8YpbZeX1yUJZ2TtA9ThXkokyQ06bgJw2E5w20CMAv1+8dUXfXxprPmd0+t2WX3JYlz84njqv/JcWV8xwXgEEYDiY1HXUdEPWz1pNKCGNsjy/wln2Z45WRI/LDZb0AuGU4GxXuMckWCynzWxDivWWcFgAlkpRPmO2/u5QEGten9uh6hPKf2ms6SynFkAAhlPJgjoNN2eydJOhgxINqWVv5l5/aLis6qiUV5EWIJwGHiGrMTP9femdNkNlVTOx5iXWWMK5Abgmvmha+n21GXgosU+HmueS2/0Fh5SuvvYfpAwKQACGI9W3aAwnDS3LjB4U3lJkBvo8EnpzggPb+zOT7M/0Kg2lsOS0KaqYkp2WyQ76XcENAThQoKL2lS84Whk9lWi7kHr1rFCeItU2ngmVqesbLJ2WdPnLG9suZuQMKfylobJpzi6AAAznKa6Y0lYQkqGDctq6TDtmW6/szyybiNSflO30HGuIytjc3o2Ltk6b8UjshNz3M2JwUwCWyszKg2tl3fxOnXXl5/gUF6YSFbX69GWUP0n5L5W5bk4wgAAMJ5EWBdpW68k+N0YPysldvuu29fYEi0blQmB/JnZY+X8ur3j03dNG/set06ZleaebfsDpAThcPado3XLOUN1e22ilj0BAcSOljJzBxlYdHidJpYZg0YTCX5rlG9alDDUAAjBMIv1XtN39J/ZRiRQqyByXO3Kvr2C4VLb1Np1hfyaUkKLN1fH5yro5eQa0ta2XHYPwQABW2Ps3oqxylWwnyQkcVBhH/fljupTnbNq/mulTuhA6v/gw5xhAAIZzFqaWaVmYmlc8wtBBrezgAYeG3mzZn1l+uCY+n2xf5TgCIADvOn16SWZi9/x1gZCKLbux5mXla5LLqo7r8kaq6xeU/9JI7DSnGUAAhkMySd6AhjwgvSgZOqhVpGm3uVUy/b0FpYdkJ2cj+zMBEIAVk89MJb+uumFR1Y8trTymeCH0gYakPjtTCkqmFJehHtSlDDUAAjAMFyga0bD1saWDVXxQrabxtP1zb17RSHntsfok+zMBEIC1iDUpmq1Vu4tECkQrL4iVmzeqyy4VWX2d5R9WXIZ6nDMNIADDAaR0rdqEEArzEQ9tdxJr9gy9UtK8JHIk2rTI/kwABOA01cbPKOmgq+Enx1Pnla9JLq6Y0eftJJbML0MNgAAMA0k5H7VpIZpYZNygjT80ZJdtvYH+wvJJqU7UzLZeAARg/QKwkq2z0iVY2w8vr5lTHkf3LDGtdP9O+KiKMtSpFc43gAAMW6tU2ZwmK9DP0lBoVlY1Y2XjIn9PfsmhyuhcvPU8xwIAAdiIAFxVf9q4ACx3IPJvFcZRmWdO6rGuRxYH5eSNKPylvvxDupShBkAAhlHUtkEqiUwzaNBM2sCY3q33y0DhwXC1bOs9y00JAAKwowNw26umehk5ShsUhcr0uWmRwhDKZ55LdSpDDYAADEPEU+fUdEAdpNs70nqO3rUpRdTM2dZbHDlSm1igYBsAuCkAby1eq5tXHkdr4ou6vK/SyKzyMtT1OpWhBkAAhv6a25XWJfKHhqWIESOGNAWLRw0KvbI+vzA8UV1/qmn/RcYZANwagFu7LweLJhTG0SzfsC7P7lu7LuXmj6koQ93JmiOAAAxbkm8RJTNy0humpXOd4UL6ymuP67rCuTdYMlYRPS7beuVkZngBwPUBWDTtX830KV0InV98WKdFcytS5kppGeryo5x4AAEYNpUbPLB7xgiW6NNPDxCJfRfTz72B0HBZ1dFY81nOTADwYABuU1Zu+rVI7LQ+z3BrTqgoQ51Y4twDCMCw5ZLUot2WpBaUHkpROgi6klbSGkJvTnCguGKqtnEh2cFiBADwegDe+jYpPaIwi2bmDib26dD0TnUZar6wAAIwbEi6oe4UOeT/F02PoDvZjuUrGFYSejP9faGyiUj9yaa2C4wbABCAf/Jt0rGe5R9WGEcDIX1+aaLtYqbyMtSlRzj9AAIwbKes+v2tWWW2jcGBQVo6N2Tv7g7bentkVUJ57WxD6hzPXwCAALyLaOOS8jXJFbUndfmlkbpTKspQNyxwBgIEYNiLTK+9G0JKq+j3C8PJemaZ4M3JP5CdNyCF1kqrjtY1n2FbLwAQgJWTclOKGxQNNqb0eZvBoknlZaibaSEJEIBhK3WJxbfSb7jmGMMCAAAB2P4BONW5kZM3ojCO+vL1qWzSvH8tM3dYcRnqSU5CgAAMG0m2r76Zfiuic4wJAAAEYEcEYFGfXFa+JrksclyXXyprm1WUoa6b5zwECMCwkZr4fHbwgK9gUJakMhoAALg6AA/8X87bIvWnpLfcuxpSy6muDZsHYFEamVUeR+uT53T5paHSKaWrr7fKUF/kVAQIwAAAADArAOf0aeu+Xlw5pTAGWxWAW7su5eaPKYyjsmRaVarfcQ1dx7r0OlJehprKjgABGAAAAKYEYK3pd1tBmaLUalUAFvHUipS5UhhHpXSWLr80mlBRhrq85gRnI0AABgAAgPEBOI30uy2WPGvnACwkYSqPo3WJJV1+aXH5jPIy1HGdylADIAADAABghwCc059+AK6I7l0+ytoALGuM5YcrjKOyelnWMKf/S2U1tYoy1MExWa3NOQkQgAEAAGDrAFwZ27tPhLUBWCTaLmbmDCmMo6HSI7r8UqmqpXzmWep1cU4CBGAAAAAYtwR6IP0A3Nh63v4BWETqTimPo9LNSJdfKt2VlP/SWPM5TkuAAAwAAACDArBIqwhWSUTRZKkdArAIFk0qzKKZucPN7Ws6LITu3vQpLkOdGxhJdW5wZgIEYAAAABgUgLcXQveojb45+QciMaXli20SgCXTSrJVGEclLevyS+OtFpShBkAABgAAwPsC8I8G3hVrXkq2r76rReVEpU0CsJC1zcrXJEfq5nX5pRW1J5X/0qhOZagBEIABAACwUwB+D5m91OV32ScAi1DplNKF0DlDiX0X0/+NW2WoQ2aXoQZAAAYAAIDXA7DESwmZCuOoBNfWbh1+aVPbxYxcpQuhC3QqQw2AAAwAAABPB2Ahy4yVr0murtenInQkNm/+LwVAAAYAAICnA7CQclPK1yTrVZw5WHRY6epr31DT/lXOUoAADAAAAAJwulJdGzl5IwrjaHnNCV1+afP+tSyf2WWoARCAAQAACMCeDsCiPnlOYRaVqKzLTmBRE19UUYY6eooTFSAAAwAAgACsg7LIcYVZNNZ0Vq9fWlh6REUZ6rYLnKsAARgAAAAE4LQXQndv+vIPKRmK4ooZvX5pS8eG8jLU/q0y1Jc4XQECMAAAAAjA6WpoWVEyFL7gqI6/tK7prPKF0OU1c5yuAAEYAAAABGAdFJRMKRkNmbnV8ZcWl88oz8CS0jljAZP9fzYE4qkkRAy+AAAAAElFTkSuQmCC;" vertex="1" parent="PtN3_XrCM42TER1USWGU-1">
          <mxGeometry x="170" y="360" width="100" height="50" as="geometry" />
        </mxCell>
        <mxCell id="PtN3_XrCM42TER1USWGU-14" value="Graviton" style="sketch=0;outlineConnect=0;fontColor=#232F3E;gradientColor=none;fillColor=#ED7100;strokeColor=none;dashed=0;verticalLabelPosition=bottom;verticalAlign=top;align=center;html=1;fontSize=12;fontStyle=0;aspect=fixed;pointerEvents=1;shape=mxgraph.aws4.ec2_c7g_instance;" vertex="1" parent="PtN3_XrCM42TER1USWGU-1">
          <mxGeometry x="286" y="350" width="39" height="39" as="geometry" />
        </mxCell>
        <mxCell id="PtN3_XrCM42TER1USWGU-15" value="GPU" style="sketch=0;outlineConnect=0;fontColor=#232F3E;gradientColor=none;fillColor=#ED7100;strokeColor=none;dashed=0;verticalLabelPosition=bottom;verticalAlign=top;align=center;html=1;fontSize=12;fontStyle=0;aspect=fixed;pointerEvents=1;shape=mxgraph.aws4.ec2_g5_instance;" vertex="1" parent="PtN3_XrCM42TER1USWGU-1">
          <mxGeometry x="335.5" y="350" width="39" height="39" as="geometry" />
        </mxCell>
        <mxCell id="PtN3_XrCM42TER1USWGU-3" value="" style="sketch=0;points=[[0,0,0],[0.25,0,0],[0.5,0,0],[0.75,0,0],[1,0,0],[0,1,0],[0.25,1,0],[0.5,1,0],[0.75,1,0],[1,1,0],[0,0.25,0],[0,0.5,0],[0,0.75,0],[1,0.25,0],[1,0.5,0],[1,0.75,0]];outlineConnect=0;fontColor=#232F3E;fillColor=#ED7100;strokeColor=#ffffff;dashed=0;verticalLabelPosition=bottom;verticalAlign=top;align=center;html=1;fontSize=12;fontStyle=0;aspect=fixed;shape=mxgraph.aws4.resourceIcon;resIcon=mxgraph.aws4.eks;" vertex="1" parent="1">
          <mxGeometry x="290" y="290" width="50" height="50" as="geometry" />
        </mxCell>
        <mxCell id="PtN3_XrCM42TER1USWGU-18" value="" style="edgeStyle=orthogonalEdgeStyle;rounded=0;orthogonalLoop=1;jettySize=auto;html=1;" edge="1" parent="1" source="PtN3_XrCM42TER1USWGU-4" target="PtN3_XrCM42TER1USWGU-5">
          <mxGeometry relative="1" as="geometry" />
        </mxCell>
        <mxCell id="PtN3_XrCM42TER1USWGU-4" value="Agent Server" style="sketch=0;points=[[0,0,0],[0.25,0,0],[0.5,0,0],[0.75,0,0],[1,0,0],[0,1,0],[0.25,1,0],[0.5,1,0],[0.75,1,0],[1,1,0],[0,0.25,0],[0,0.5,0],[0,0.75,0],[1,0.25,0],[1,0.5,0],[1,0.75,0]];outlineConnect=0;fontColor=#232F3E;fillColor=#ED7100;strokeColor=#ffffff;dashed=0;verticalLabelPosition=bottom;verticalAlign=top;align=center;html=1;fontSize=12;fontStyle=0;aspect=fixed;shape=mxgraph.aws4.resourceIcon;resIcon=mxgraph.aws4.ec2;" vertex="1" parent="1">
          <mxGeometry x="410" y="431" width="48" height="48" as="geometry" />
        </mxCell>
        <mxCell id="PtN3_XrCM42TER1USWGU-5" value="LiteLLM&amp;nbsp;" style="sketch=0;points=[[0,0,0],[0.25,0,0],[0.5,0,0],[0.75,0,0],[1,0,0],[0,1,0],[0.25,1,0],[0.5,1,0],[0.75,1,0],[1,1,0],[0,0.25,0],[0,0.5,0],[0,0.75,0],[1,0.25,0],[1,0.5,0],[1,0.75,0]];outlineConnect=0;fontColor=#232F3E;fillColor=#ED7100;strokeColor=#ffffff;dashed=0;verticalLabelPosition=bottom;verticalAlign=top;align=center;html=1;fontSize=12;fontStyle=0;aspect=fixed;shape=mxgraph.aws4.resourceIcon;resIcon=mxgraph.aws4.ec2;" vertex="1" parent="1">
          <mxGeometry x="510" y="431" width="48" height="48" as="geometry" />
        </mxCell>
        <mxCell id="PtN3_XrCM42TER1USWGU-6" value="KubeRay Cluster" style="points=[[0,0],[0.25,0],[0.5,0],[0.75,0],[1,0],[1,0.25],[1,0.5],[1,0.75],[1,1],[0.75,1],[0.5,1],[0.25,1],[0,1],[0,0.75],[0,0.5],[0,0.25]];outlineConnect=0;gradientColor=none;html=1;whiteSpace=wrap;fontSize=12;fontStyle=0;container=1;pointerEvents=0;collapsible=0;recursiveResize=0;shape=mxgraph.aws4.group;grIcon=mxgraph.aws4.group_ec2_instance_contents;strokeColor=#D86613;fillColor=none;verticalAlign=top;align=left;spacingLeft=30;fontColor=#D86613;dashed=0;" vertex="1" parent="1">
          <mxGeometry x="600" y="330" width="190" height="190" as="geometry" />
        </mxCell>
        <mxCell id="PtN3_XrCM42TER1USWGU-8" value="vLLM workder" style="sketch=0;points=[[0,0,0],[0.25,0,0],[0.5,0,0],[0.75,0,0],[1,0,0],[0,1,0],[0.25,1,0],[0.5,1,0],[0.75,1,0],[1,1,0],[0,0.25,0],[0,0.5,0],[0,0.75,0],[1,0.25,0],[1,0.5,0],[1,0.75,0]];outlineConnect=0;fontColor=#232F3E;fillColor=#ED7100;strokeColor=#ffffff;dashed=0;verticalLabelPosition=bottom;verticalAlign=top;align=center;html=1;fontSize=12;fontStyle=0;aspect=fixed;shape=mxgraph.aws4.resourceIcon;resIcon=mxgraph.aws4.ec2;" vertex="1" parent="PtN3_XrCM42TER1USWGU-6">
          <mxGeometry x="110" y="101" width="48" height="48" as="geometry" />
        </mxCell>
        <mxCell id="PtN3_XrCM42TER1USWGU-9" value="header server" style="sketch=0;points=[[0,0,0],[0.25,0,0],[0.5,0,0],[0.75,0,0],[1,0,0],[0,1,0],[0.25,1,0],[0.5,1,0],[0.75,1,0],[1,1,0],[0,0.25,0],[0,0.5,0],[0,0.75,0],[1,0.25,0],[1,0.5,0],[1,0.75,0]];outlineConnect=0;fontColor=#232F3E;fillColor=#ED7100;strokeColor=#ffffff;dashed=0;verticalLabelPosition=bottom;verticalAlign=top;align=center;html=1;fontSize=12;fontStyle=0;aspect=fixed;shape=mxgraph.aws4.resourceIcon;resIcon=mxgraph.aws4.ec2;" vertex="1" parent="PtN3_XrCM42TER1USWGU-6">
          <mxGeometry x="20" y="70" width="48" height="48" as="geometry" />
        </mxCell>
        <mxCell id="PtN3_XrCM42TER1USWGU-7" value="llamacpp worker" style="sketch=0;points=[[0,0,0],[0.25,0,0],[0.5,0,0],[0.75,0,0],[1,0,0],[0,1,0],[0.25,1,0],[0.5,1,0],[0.75,1,0],[1,1,0],[0,0.25,0],[0,0.5,0],[0,0.75,0],[1,0.25,0],[1,0.5,0],[1,0.75,0]];outlineConnect=0;fontColor=#232F3E;fillColor=#ED7100;strokeColor=#ffffff;dashed=0;verticalLabelPosition=bottom;verticalAlign=top;align=center;html=1;fontSize=12;fontStyle=0;aspect=fixed;shape=mxgraph.aws4.resourceIcon;resIcon=mxgraph.aws4.ec2;" vertex="1" parent="1">
          <mxGeometry x="710" y="360" width="48" height="48" as="geometry" />
        </mxCell>
        <mxCell id="PtN3_XrCM42TER1USWGU-10" value="Other Inference runtime" style="sketch=0;points=[[0,0,0],[0.25,0,0],[0.5,0,0],[0.75,0,0],[1,0,0],[0,1,0],[0.25,1,0],[0.5,1,0],[0.75,1,0],[1,1,0],[0,0.25,0],[0,0.5,0],[0,0.75,0],[1,0.25,0],[1,0.5,0],[1,0.75,0]];outlineConnect=0;fontColor=#232F3E;fillColor=#ED7100;strokeColor=#ffffff;dashed=0;verticalLabelPosition=bottom;verticalAlign=top;align=center;html=1;fontSize=12;fontStyle=0;aspect=fixed;shape=mxgraph.aws4.resourceIcon;resIcon=mxgraph.aws4.ec2;" vertex="1" parent="1">
          <mxGeometry x="662" y="540" width="48" height="48" as="geometry" />
        </mxCell>
        <mxCell id="PtN3_XrCM42TER1USWGU-17" value="" style="edgeStyle=orthogonalEdgeStyle;rounded=0;orthogonalLoop=1;jettySize=auto;html=1;entryX=0;entryY=0.5;entryDx=0;entryDy=0;entryPerimeter=0;" edge="1" parent="1" source="PtN3_XrCM42TER1USWGU-11" target="PtN3_XrCM42TER1USWGU-4">
          <mxGeometry relative="1" as="geometry" />
        </mxCell>
        <mxCell id="PtN3_XrCM42TER1USWGU-19" style="edgeStyle=orthogonalEdgeStyle;rounded=0;orthogonalLoop=1;jettySize=auto;html=1;exitX=1;exitY=0.5;exitDx=0;exitDy=0;exitPerimeter=0;entryX=0;entryY=0.5;entryDx=0;entryDy=0;entryPerimeter=0;" edge="1" parent="1" source="PtN3_XrCM42TER1USWGU-5" target="PtN3_XrCM42TER1USWGU-9">
          <mxGeometry relative="1" as="geometry" />
        </mxCell>
        <mxCell id="PtN3_XrCM42TER1USWGU-20" style="edgeStyle=orthogonalEdgeStyle;rounded=0;orthogonalLoop=1;jettySize=auto;html=1;entryX=0;entryY=0.5;entryDx=0;entryDy=0;entryPerimeter=0;" edge="1" parent="1" source="PtN3_XrCM42TER1USWGU-5" target="PtN3_XrCM42TER1USWGU-10">
          <mxGeometry relative="1" as="geometry">
            <Array as="points">
              <mxPoint x="590" y="455" />
              <mxPoint x="590" y="564" />
            </Array>
          </mxGeometry>
        </mxCell>
      </root>
    </mxGraphModel>
  </diagram>
</mxfile>
